<?xml version="1.0" encoding="utf-8"?>
<!-- Generator: Adobe Illustrator 25.2.1, SVG Export Plug-In . SVG Version: 6.00 Build 0)  -->
<svg version="1.1" xmlns="http://www.w3.org/2000/svg" xmlns:xlink="http://www.w3.org/1999/xlink" x="0px" y="0px"
	 viewBox="0 0 500 500" style="enable-background:new 0 0 500 500;" xml:space="preserve">
<style type="text/css">
	.st0{display:none;}
	.st1{display:inline;}
	.st2{fill:#F5F5F5;}
	.st3{fill:#263238;}
	.st4{fill:#FF725E;}
	.st5{fill:#FFFFFF;}
	.st6{opacity:0.2;}
	.st7{fill:#FFBF9D;}
	.st8{fill:#FF9A6C;}
	.st9{fill:#455A64;}
	.st10{opacity:0.3;}
</style>
<g id="Background_Simple" class="st0">
	<g class="st1">
		<path class="st2" d="M445.48,132.35l-2.57-4.23c-13.72-30.96-60.17-56.8-101.98-54.53c-5.3,0.29-10.58,1.05-15.79,2.17
			c-37.49,8.03-70.12,36.38-83.64,72.69c-7.95,21.36-10.17,45.94-25.27,62.89c-19.64,22.06-52.99,22.75-82.3,21.84
			c-29.32-0.91-62.69-0.13-82.23,22.01c-12.24,13.87-16.13,33.6-15.14,52.17c2.61,49.18,36.88,93.15,80.47,115.01
			c43.58,21.86,94.9,23.82,142.59,14.2c66.82-13.47,130.36-50.46,168.56-107.59C466.37,271.85,476.04,194.01,445.48,132.35z"/>
	</g>
</g>
<g id="Desk" class="st0">
</g>
<g id="Device">
	<g>
		<g>
			<g>
				<g>
					<g>
						<g>
							<g>
								<g>
									<g>
										<path class="st3" d="M199.65,389.42l-117.03-0.07c-14.08-0.01-25.48-11.22-25.48-25.04l0.06-288.17
											c0-13.83,11.42-25.04,25.51-25.03l117.03,0.07c14.08,0.01,25.48,11.22,24.51,25.04l-0.06,288.17
											C225.15,378.22,213.73,389.43,199.65,389.42z"/>
									</g>
								</g>
							</g>
						</g>
					</g>
					<g>
						<g>
							<g>
								<g>
									<g>
										<path class="st4" d="M199.79,59.42l-22.69-0.01c-3.04,0-5.51,2.58-5.51,5.76l0,4.12c0,3.18-2.47,5.76-5.51,5.76
											l-44.23-0.03c-3.04,0-5.51-2.58-5.51-5.76l0-4.12c0-3.18-2.47-5.76-5.51-5.76l-7.98-0.01L83,59.36
											c-9.86-0.01-17.86,7.99-17.86,17.85l-0.06,286.38c0,9.86,7.99,17.85,17.84,17.86l116.8,0.07
											c9.86,0.01,17.86-7.99,17.86-17.85l0.06-286.38C217.64,67.42,209.65,59.43,199.79,59.42z"/>
									</g>
								</g>
							</g>
						</g>
					</g>
				</g>
			</g>
		</g>
		<g>
			<g>
				<g>
					<g>
						<g>
							<g>
								<g>
									<g>
										<path class="st5" d="M206.47,92.39c0,0.08-3.15,0.17-7.03,0.21c-3.88,0.03-7.03-0.01-7.03-0.09
											c0-0.08,3.15-0.17,7.03-0.21C203.32,92.27,206.47,92.31,206.47,92.39z"/>
									</g>
								</g>
							</g>
						</g>
					</g>
				</g>
			</g>
			<g>
				<g>
					<g>
						<g>
							<g>
								<g>
									<g>
										<path class="st5" d="M206.5,95.99c0,0.08-3.15,0.17-7.03,0.21c-3.89,0.03-7.03-0.01-7.03-0.09c0-0.08,3.15-0.17,7.03-0.21
											C203.35,95.86,206.5,95.9,206.5,95.99z"/>
									</g>
								</g>
							</g>
						</g>
					</g>
				</g>
			</g>
			<g>
				<g>
					<g>
						<g>
							<g>
								<g>
									<g>
										<path class="st5" d="M206.53,99.59c0,0.08-3.15,0.17-7.03,0.21c-3.88,0.03-7.03-0.01-7.03-0.09
											c0-0.08,3.15-0.17,7.03-0.21C203.38,99.46,206.53,99.5,206.53,99.59z"/>
									</g>
								</g>
							</g>
						</g>
					</g>
				</g>
			</g>
			<g>
				<g>
					<g>
						<g>
							<g>
								<g>
									<path class="st5" d="M78.56,103.81c0.01-0.01,0.11-0.01,0.29-0.02c0.23-0.01,0.5-0.02,0.81-0.03
										c0.77-0.02,1.77-0.04,3-0.07l-0.08,0.08c-0.01-0.67-0.02-1.39-0.04-2.18c0-0.4-0.03-0.79,0-1.25
										c0.08-0.47,0.5-0.88,1.01-0.93c0.48-0.01,0.91-0.03,1.43-0.01c0.54,0.07,1,0.59,0.99,1.16c0.01,1.02,0.02,2.08,0.04,3.18
										l-0.14-0.14c1.22-0.01,2.48-0.03,3.79-0.04l-0.14,0.15c-0.01-1.53-0.03-3.1-0.04-4.72c0-0.4-0.01-0.8-0.01-1.2
										c0-0.37-0.23-0.62-0.53-0.9c-0.56-0.55-1.11-1.1-1.66-1.63c-0.54-0.54-1.08-1.06-1.6-1.58c-0.26-0.26-0.52-0.51-0.77-0.76
										c-0.27-0.26-0.48-0.52-0.78-0.58c-0.3-0.08-0.63-0.02-0.87,0.17c-0.23,0.19-0.47,0.47-0.71,0.69
										c-0.47,0.47-0.92,0.93-1.36,1.37c-0.86,0.89-1.75,1.7-2.39,2.47c-0.27,0.42-0.17,0.94-0.19,1.41c0,0.47,0,0.91,0,1.33
										c0,0.82-0.01,1.54-0.01,2.15c-0.01,0.55-0.01,1-0.02,1.38C78.58,103.63,78.57,103.8,78.56,103.81
										c-0.01,0.01-0.02-0.15-0.03-0.46c-0.01-0.37-0.02-0.81-0.04-1.35c-0.01-0.62-0.03-1.34-0.05-2.17
										c-0.01-0.43-0.02-0.88-0.03-1.36c0-0.24-0.01-0.49-0.01-0.74c0-0.27,0.07-0.55,0.21-0.79c0.7-0.86,1.54-1.62,2.4-2.53
										c0.44-0.45,0.89-0.91,1.35-1.38c0.24-0.24,0.44-0.48,0.73-0.72c0.3-0.23,0.72-0.32,1.1-0.22c0.4,0.09,0.67,0.42,0.91,0.65
										c0.26,0.25,0.52,0.51,0.78,0.76c0.52,0.51,1.06,1.04,1.6,1.57c0.54,0.53,1.1,1.08,1.66,1.63c0.13,0.14,0.29,0.26,0.42,0.46
										c0.12,0.19,0.19,0.41,0.2,0.64c0,0.4,0.01,0.8,0.01,1.21c0.01,1.62,0.02,3.19,0.04,4.72l0,0.15l-0.15,0
										c-1.31,0.01-2.57,0.02-3.79,0.02l-0.14,0l0-0.14c-0.01-1.1-0.01-2.16-0.02-3.18c0.02-0.46-0.34-0.86-0.77-0.92
										c-0.44-0.02-0.95-0.01-1.37,0c-0.41,0.03-0.75,0.36-0.82,0.74c-0.04,0.38-0.01,0.83-0.02,1.21c0,0.78,0,1.51,0,2.18l0,0.09
										l-0.08,0c-1.25-0.01-2.27-0.02-3.05-0.02c-0.31-0.01-0.57-0.01-0.8-0.01C78.65,103.82,78.56,103.82,78.56,103.81z"/>
								</g>
							</g>
						</g>
					</g>
				</g>
			</g>
		</g>
		<g>
			<g>
				<g>
					<g>
						<g>
							<circle class="st5" cx="148.44" cy="319.14" r="21.75"/>
						</g>
					</g>
				</g>
			</g>
			<g>
				<g>
					<path class="st4" d="M135.1,324.14l5.43-1.28c0.67-0.16,1.14-0.76,1.14-1.44v-1.12c0,0-0.23-1.9,1.56-2.02
						c1.29-0.09,9.46,0,9.46,0s2.15-0.04,2.11,1.65v1.63c0,0.56,0.37,1.05,0.9,1.22l5.89,1.78c0.63,0.19,1.29-0.13,1.54-0.73
						l0.75-1.82c0.14-0.33,0.21-0.69,0.19-1.05c-0.04-0.71-0.31-1.82-1.01-2.72c-1.17-1.5-6.67-5.04-17.18-4.53
						c-10,0.49-12.18,4.7-12.75,5.71c-0.36,0.63-0.46,2.16-0.19,2.81c0.1,0.24,0.27,0.64,0.44,1.04
						C133.67,323.94,134.39,324.31,135.1,324.14z"/>
				</g>
			</g>
		</g>
		<g>
			<g class="st6">
				<g>
					<g>
						<circle class="st5" cx="148.44" cy="249.44" r="15.07"/>
					</g>
				</g>
			</g>
			<g>
				<g>
					<g>
						<circle class="st5" cx="144.32" cy="249.46" r="1.75"/>
					</g>
				</g>
				<g>
					<g>
						<path class="st5" d="M150.19,249.46c0,0.97-0.78,1.75-1.75,1.75c-0.97,0-1.75-0.78-1.75-1.75c0-0.97,0.78-1.75,1.75-1.75
							C149.41,247.71,150.19,248.49,150.19,249.46z"/>
					</g>
				</g>
				<g>
					<g>
						<path class="st5" d="M154.31,249.46c0,0.97-0.78,1.75-1.75,1.75s-1.75-0.78-1.75-1.75c0-0.97,0.78-1.75,1.75-1.75
							S154.31,248.49,154.31,249.46z"/>
					</g>
				</g>
				<g>
					<g>
						<path class="st5" d="M146.07,245.28c0,0.97-0.78,1.75-1.75,1.75c-0.97,0-1.75-0.78-1.75-1.75c0-0.97,0.78-1.75,1.75-1.75
							C145.29,243.52,146.07,244.31,146.07,245.28z"/>
					</g>
				</g>
				<g>
					<g>
						<path class="st5" d="M150.19,245.28c0,0.97-0.78,1.75-1.75,1.75c-0.97,0-1.75-0.78-1.75-1.75c0-0.97,0.78-1.75,1.75-1.75
							C149.41,243.52,150.19,244.31,150.19,245.28z"/>
					</g>
				</g>
				<g>
					<g>
						<path class="st5" d="M154.31,245.28c0,0.97-0.78,1.75-1.75,1.75s-1.75-0.78-1.75-1.75c0-0.97,0.78-1.75,1.75-1.75
							S154.31,244.31,154.31,245.28z"/>
					</g>
				</g>
				<g>
					<g>
						<path class="st5" d="M146.07,253.6c0,0.97-0.78,1.75-1.75,1.75c-0.97,0-1.75-0.78-1.75-1.75c0-0.97,0.78-1.75,1.75-1.75
							C145.29,251.85,146.07,252.63,146.07,253.6z"/>
					</g>
				</g>
				<g>
					<g>
						<path class="st5" d="M150.19,253.6c0,0.97-0.78,1.75-1.75,1.75c-0.97,0-1.75-0.78-1.75-1.75c0-0.97,0.78-1.75,1.75-1.75
							C149.41,251.85,150.19,252.63,150.19,253.6z"/>
					</g>
				</g>
				<g>
					<g>
						<path class="st5" d="M154.31,253.6c0,0.97-0.78,1.75-1.75,1.75s-1.75-0.78-1.75-1.75c0-0.97,0.78-1.75,1.75-1.75
							S154.31,252.63,154.31,253.6z"/>
					</g>
				</g>
			</g>
		</g>
		<g>
			<g class="st6">
				<g>
					<g>
						<circle class="st5" cx="105.18" cy="249.44" r="15.07"/>
					</g>
				</g>
			</g>
			<g>
				<g>
					<g>
						<path class="st5" d="M98.11,247.47v3.57c0,0.15,0.12,0.27,0.27,0.27h1.97c0.06,0,0.12,0.02,0.17,0.06l3.07,2.4
							c0.18,0.14,0.44,0.01,0.44-0.22v-8.34c0-0.22-0.25-0.35-0.43-0.22l-2.97,2.14c-0.05,0.03-0.1,0.05-0.16,0.05l-2.09,0.01
							C98.23,247.2,98.11,247.32,98.11,247.47z"/>
					</g>
				</g>
				<g>
					<g>
						<path class="st5" d="M109.74,255.46c-0.08,0-0.16-0.03-0.23-0.09c-0.14-0.13-0.15-0.35-0.03-0.49
							c1.72-1.91,2.53-3.89,2.42-5.88c-0.17-2.98-2.37-4.97-2.39-4.99c-0.14-0.13-0.16-0.34-0.03-0.49
							c0.13-0.14,0.34-0.16,0.49-0.03c0.1,0.09,2.44,2.21,2.62,5.47c0.12,2.18-0.75,4.32-2.59,6.38
							C109.93,255.42,109.83,255.46,109.74,255.46z"/>
					</g>
				</g>
				<g>
					<g>
						<path class="st5" d="M107.84,253.78c-0.09,0-0.18-0.04-0.25-0.11c-0.13-0.14-0.12-0.36,0.02-0.49
							c1.22-1.14,1.84-2.38,1.84-3.69c0-2.25-1.82-3.99-1.84-4.01c-0.14-0.13-0.15-0.35-0.02-0.49c0.13-0.14,0.35-0.15,0.49-0.02
							c0.08,0.08,2.05,1.95,2.05,4.51c0,1.51-0.69,2.93-2.05,4.2C108.01,253.75,107.92,253.78,107.84,253.78z"/>
					</g>
				</g>
				<g>
					<g>
						<path class="st5" d="M106.15,252.04c-0.09,0-0.18-0.03-0.25-0.1c-0.13-0.14-0.13-0.35,0-0.49c2.12-2.1,0.07-4.48-0.02-4.58
							c-0.13-0.14-0.11-0.36,0.03-0.49c0.14-0.13,0.36-0.11,0.49,0.03c0.03,0.03,2.57,2.96-0.02,5.53
							C106.33,252.01,106.24,252.04,106.15,252.04z"/>
					</g>
				</g>
			</g>
		</g>
		<g>
			<g class="st6">
				<g>
					<g>
						<circle class="st5" cx="187.99" cy="249.44" r="15.07"/>
					</g>
				</g>
			</g>
			<g>
				<g>
					<g>
						<path class="st5" d="M188.09,254.65c-0.25,0-0.46-0.21-0.46-0.46v-9.5c0-0.25,0.21-0.46,0.46-0.46s0.46,0.21,0.46,0.46v9.5
							C188.55,254.44,188.34,254.65,188.09,254.65z"/>
					</g>
				</g>
				<g>
					<g>
						<path class="st5" d="M192.6,249.9h-9.22c-0.25,0-0.46-0.21-0.46-0.46c0-0.25,0.21-0.46,0.46-0.46h9.22
							c0.25,0,0.46,0.21,0.46,0.46C193.06,249.69,192.86,249.9,192.6,249.9z"/>
					</g>
				</g>
			</g>
		</g>
		<g>
			<path class="st5" d="M129.68,147.85c4.12,4.44,6.18,10.84,6.18,19.18c0,5.91-1.1,10.97-3.31,15.19
				c-2.21,4.22-5.32,7.42-9.35,9.61c-4.02,2.19-8.66,3.28-13.93,3.28c-2.78,0-5.44-0.31-7.97-0.93c-2.53-0.62-4.69-1.5-6.48-2.64
				l4.47-8.86c2.53,1.74,5.78,2.61,9.76,2.61c4.42,0,7.92-1.3,10.5-3.91c2.58-2.61,3.97-6.37,4.17-11.28
				c-3.13,3.13-7.45,4.69-12.96,4.69c-3.33,0-6.36-0.67-9.09-2.01c-2.73-1.34-4.89-3.24-6.48-5.7c-1.59-2.46-2.38-5.3-2.38-8.53
				c0-3.47,0.87-6.53,2.61-9.16c1.74-2.63,4.11-4.65,7.11-6.07c3-1.42,6.34-2.12,10.02-2.12
				C119.85,141.18,125.56,143.41,129.68,147.85z M119.89,163.56c1.66-1.46,2.5-3.34,2.5-5.62c0-2.28-0.81-4.14-2.42-5.58
				c-1.61-1.44-3.83-2.16-6.67-2.16c-2.58,0-4.68,0.7-6.29,2.09c-1.61,1.39-2.42,3.28-2.42,5.66c0,2.38,0.81,4.28,2.42,5.7
				c1.61,1.41,3.76,2.12,6.44,2.12C116.08,165.76,118.23,165.03,119.89,163.56z"/>
			<path class="st5" d="M161.33,142.08v52.13h-12.06v-42.45h-10.43v-9.68H161.33z"/>
			<path class="st5" d="M190.52,142.08v52.13h-12.06v-42.45h-10.43v-9.68H190.52z"/>
		</g>
		<g>
			<path class="st5" d="M96.71,215.22v1.76h-6.46v-8.05h6.32v1.76H92.5v1.36h3.58v1.7H92.5v1.47H96.71z"/>
			<path class="st5" d="M105.25,216.98l-0.02-4.27l-2.07,3.47h-1.01l-2.06-3.36v4.15h-2.1v-8.05h1.88l2.83,4.65l2.76-4.65h1.88
				l0.02,8.05H105.25z"/>
			<path class="st5" d="M115.42,215.22v1.76h-6.46v-8.05h6.31v1.76h-4.06v1.36h3.58v1.7h-3.58v1.47H115.42z"/>
			<path class="st5" d="M120.2,214.84h-1.24v2.14h-2.28v-8.05h3.68c0.73,0,1.36,0.12,1.9,0.36c0.54,0.24,0.95,0.59,1.24,1.04
				c0.29,0.45,0.44,0.98,0.44,1.58c0,0.58-0.14,1.09-0.41,1.52c-0.27,0.43-0.66,0.77-1.17,1.02l1.74,2.53h-2.44L120.2,214.84z
				 M121.28,211.04c-0.24-0.21-0.59-0.31-1.06-0.31h-1.27v2.36h1.27c0.47,0,0.82-0.1,1.06-0.3c0.24-0.2,0.36-0.49,0.36-0.87
				C121.64,211.53,121.52,211.24,121.28,211.04z"/>
			<path class="st5" d="M130.59,212.78h2.01v3.34c-0.46,0.33-0.99,0.58-1.59,0.76c-0.6,0.18-1.2,0.26-1.79,0.26
				c-0.84,0-1.6-0.18-2.28-0.54c-0.68-0.36-1.2-0.85-1.59-1.49c-0.38-0.64-0.58-1.36-0.58-2.16c0-0.81,0.19-1.53,0.58-2.16
				c0.38-0.64,0.92-1.13,1.6-1.49c0.68-0.36,1.45-0.54,2.31-0.54c0.75,0,1.43,0.13,2.02,0.38c0.6,0.25,1.1,0.62,1.5,1.09l-1.45,1.31
				c-0.54-0.6-1.2-0.9-1.96-0.9c-0.69,0-1.25,0.21-1.67,0.63c-0.42,0.42-0.63,0.98-0.63,1.67c0,0.44,0.1,0.84,0.29,1.19
				c0.19,0.35,0.46,0.62,0.81,0.82c0.35,0.2,0.74,0.29,1.18,0.29c0.44,0,0.85-0.09,1.23-0.26V212.78z"/>
			<path class="st5" d="M140.51,215.22v1.76h-6.46v-8.05h6.31v1.76h-4.06v1.36h3.58v1.7h-3.58v1.47H140.51z"/>
			<path class="st5" d="M149.44,208.93v8.05h-1.88l-3.55-4.29v4.29h-2.23v-8.05h1.88l3.55,4.29v-4.29H149.44z"/>
			<path class="st5" d="M152.79,216.61c-0.67-0.36-1.2-0.85-1.58-1.49c-0.38-0.64-0.58-1.36-0.58-2.16c0-0.81,0.19-1.53,0.58-2.16
				c0.38-0.64,0.91-1.13,1.58-1.49c0.67-0.36,1.43-0.54,2.27-0.54c0.74,0,1.4,0.13,1.99,0.39c0.59,0.26,1.08,0.64,1.47,1.13
				l-1.45,1.31c-0.52-0.63-1.15-0.94-1.9-0.94c-0.44,0-0.83,0.1-1.17,0.29c-0.34,0.19-0.61,0.46-0.79,0.81
				c-0.19,0.35-0.28,0.75-0.28,1.2c0,0.45,0.09,0.85,0.28,1.2c0.19,0.35,0.45,0.62,0.79,0.81c0.34,0.19,0.73,0.29,1.17,0.29
				c0.74,0,1.38-0.31,1.9-0.94l1.45,1.31c-0.39,0.49-0.88,0.87-1.47,1.13c-0.59,0.26-1.25,0.39-1.99,0.39
				C154.22,217.14,153.46,216.96,152.79,216.61z"/>
			<path class="st5" d="M163.82,214.09v2.89h-2.28v-2.92l-3.07-5.13h2.4l1.91,3.2l1.91-3.2h2.21L163.82,214.09z"/>
			<path class="st5" d="M172.57,216.61c-0.67-0.36-1.2-0.85-1.58-1.49c-0.38-0.64-0.58-1.36-0.58-2.16c0-0.81,0.19-1.53,0.58-2.16
				c0.38-0.64,0.91-1.13,1.58-1.49c0.67-0.36,1.43-0.54,2.27-0.54c0.74,0,1.4,0.13,1.99,0.39c0.59,0.26,1.08,0.64,1.47,1.13
				l-1.45,1.31c-0.52-0.63-1.15-0.94-1.9-0.94c-0.44,0-0.83,0.1-1.17,0.29c-0.34,0.19-0.61,0.46-0.79,0.81
				c-0.19,0.35-0.28,0.75-0.28,1.2c0,0.45,0.09,0.85,0.28,1.2c0.19,0.35,0.45,0.62,0.79,0.81c0.34,0.19,0.73,0.29,1.17,0.29
				c0.74,0,1.38-0.31,1.9-0.94l1.45,1.31c-0.39,0.49-0.88,0.87-1.47,1.13c-0.59,0.26-1.25,0.39-1.99,0.39
				C173.99,217.14,173.24,216.96,172.57,216.61z"/>
			<path class="st5" d="M184.57,215.42h-3.4l-0.63,1.56h-2.32l3.55-8.05H184l3.57,8.05h-2.37L184.57,215.42z M183.9,213.74
				l-1.04-2.58l-1.04,2.58H183.9z"/>
			<path class="st5" d="M188.21,208.93h2.28v6.25h3.84v1.81h-6.12V208.93z"/>
			<path class="st5" d="M195.23,208.93h2.28v6.25h3.84v1.81h-6.12V208.93z"/>
		</g>
	</g>
</g>
<g id="Speech_Bubble">
	<g>
		<g>
			<g>
				<g>
					<g>
						<g>
							<g>
								<g>
									<g>
										<g>
											<polygon class="st5" points="405.05,85.38 384.77,70.52 382.18,95.01 356.39,97.71 376.2,117.51 361.04,131.96 
												382.51,133.54 385,152.81 401.99,138.46 425.01,152.81 431.44,129.06 456.86,125.49 434.58,109.64 446.59,88.54 
												427.25,92.96 421.81,67.01 											"/>
										</g>
										<g>
											<g>
												<path class="st3" d="M405.05,85.38c0,0,0.37-0.43,1.1-1.25c0.74-0.82,1.82-2.02,3.23-3.58c2.84-3.13,7-7.73,12.34-13.62
													l0.17-0.18l0.05,0.24c1.5,7.12,3.36,15.89,5.49,25.94l-0.21-0.14c5.88-1.35,12.4-2.85,19.34-4.45l0.45-0.1l-0.23,0.4
													c-3.71,6.53-7.74,13.63-11.99,21.11l-0.06-0.29c7.05,5.01,14.51,10.31,22.28,15.83l0.5,0.35l-0.6,0.08
													c-8.09,1.14-16.63,2.34-25.41,3.58l0.21-0.18c-2.05,7.57-4.22,15.58-6.43,23.75l-0.09,0.34l-0.3-0.18
													c-5.67-3.53-11.67-7.28-17.75-11.07c-1.76-1.1-3.52-2.19-5.26-3.28l0.31-0.02c-5.76,4.86-11.43,9.65-16.99,14.35
													l-0.36,0.31l-0.06-0.47c-0.85-6.55-1.68-12.98-2.49-19.27l0.23,0.22c-7.35-0.54-14.51-1.07-21.47-1.59l-0.55-0.04
													l0.4-0.38c5.22-4.97,10.29-9.79,15.17-14.44l0,0.33c-7.02-7.03-13.63-13.65-19.78-19.82l-0.31-0.31l0.43-0.04
													c9.43-0.97,18.02-1.86,25.79-2.66L382,95c1.03-9.58,1.91-17.72,2.64-24.49l0.02-0.22l0.18,0.13
													c6.54,4.83,11.58,8.55,15,11.08c1.7,1.26,3,2.23,3.88,2.88C404.6,85.03,405.05,85.38,405.05,85.38s-0.44-0.3-1.32-0.93
													c-0.89-0.64-2.19-1.58-3.9-2.82c-3.45-2.51-8.54-6.21-15.14-11.01l0.2-0.09c-0.7,6.77-1.55,14.92-2.55,24.5l-0.01,0.14
													l-0.14,0.01c-7.76,0.82-16.35,1.73-25.78,2.73l0.12-0.35c6.17,6.16,12.79,12.77,19.82,19.78l0.17,0.17l-0.17,0.16
													c-4.88,4.65-9.93,9.48-15.15,14.46l-0.15-0.42c6.96,0.51,14.12,1.03,21.47,1.57l0.21,0.01l0.03,0.2
													c0.82,6.3,1.65,12.72,2.5,19.27l-0.42-0.16c5.56-4.7,11.23-9.49,16.99-14.35l0.14-0.12l0.16,0.1
													c1.75,1.09,3.5,2.18,5.26,3.28c6.08,3.79,12.09,7.54,17.75,11.07l-0.39,0.15c2.21-8.17,4.39-16.18,6.44-23.75l0.04-0.16
													l0.17-0.02c8.78-1.23,17.32-2.43,25.42-3.56l-0.11,0.44c-7.76-5.53-15.22-10.84-22.26-15.86l-0.17-0.12l0.1-0.18
													c4.26-7.47,8.31-14.57,12.03-21.09l0.22,0.3c-6.94,1.58-13.46,3.06-19.35,4.4l-0.17,0.04L427.08,93
													c-2.09-10.06-3.91-18.84-5.39-25.96l0.22,0.06c-5.4,5.87-9.61,10.46-12.49,13.58c-1.42,1.54-2.51,2.72-3.26,3.52
													C405.43,84.99,405.05,85.38,405.05,85.38z"/>
											</g>
										</g>
									</g>
								</g>
							</g>
						</g>
					</g>
				</g>
			</g>
		</g>
		<g>
			<g>
				<g>
					<g>
						<path class="st4" d="M401.82,94.42l-1.34,19.42c-0.11,1.59-1.39,2.84-2.98,2.93l0,0c-1.68,0.09-3.13-1.15-3.3-2.82
							l-2.04-19.54c-0.16-1.48,1.02-2.76,2.51-2.73l4.74,0.09C400.82,91.8,401.92,93.01,401.82,94.42z"/>
					</g>
				</g>
			</g>
			<g>
				<g>
					<g>
						<path class="st4" d="M392.48,125.84c0.81,2.49,3.49,3.85,5.98,3.04c2.49-0.81,3.85-3.49,3.04-5.98
							c-0.81-2.49-3.49-3.85-5.98-3.04C393.03,120.67,391.67,123.35,392.48,125.84z"/>
					</g>
				</g>
			</g>
		</g>
		<g>
			<g>
				<g>
					<g>
						<path class="st4" d="M417.88,94.42l-1.34,19.42c-0.11,1.59-1.39,2.84-2.98,2.93l0,0c-1.68,0.09-3.13-1.15-3.3-2.82
							l-2.04-19.54c-0.16-1.48,1.02-2.76,2.51-2.73l4.74,0.09C416.87,91.8,417.98,93.01,417.88,94.42z"/>
					</g>
				</g>
			</g>
			<g>
				<g>
					<g>
						<path class="st4" d="M408.53,125.84c0.81,2.49,3.49,3.85,5.98,3.04c2.49-0.81,3.85-3.49,3.04-5.98
							c-0.81-2.49-3.49-3.85-5.98-3.04C409.08,120.67,407.72,123.35,408.53,125.84z"/>
					</g>
				</g>
			</g>
		</g>
	</g>
</g>
<g id="Character">
	<g>
		<g>
			<g>
				<g>
					<path class="st3" d="M391.95,337.81c-0.06-1.89-1.19-3.56-2.77-4.6c-24.6-16.28-43.13-52.36-45-82.91
						c-0.05-1.74-0.1-3.5-0.16-5.28c0-0.01,0-0.01,0-0.02l0,0c-1.54-45.93-7.96-98.79-13.63-110.77
						c-12.05-25.47-46.78-28.53-46.78-28.53c-47.95-3.43-56.51,33.41-61.35,66.97c-3.01,20.87-14.61,95.42-14.61,95.42l8.81,3.41
						c10.38,30.77,33.76,55.65,64.15,67.09c8.84,3.33,16.32,4.66,19.83,1.8c13.96,14.15,31.43,24.84,50.46,30.63
						c7.74,2.36,15.86,3.93,23.92,3.18c5.23-0.49,10.75-2.22,13.87-6.45c2.69-3.64,3.06-8.85,0.91-12.84
						c-2.15-3.99-6.7-6.55-11.22-6.31C380.19,342.72,392.15,344.45,391.95,337.81z"/>
				</g>
			</g>
			<g>
				<path class="st7" d="M300.74,247.13c0,0,17.52-7.53,26.58-9.24c9.05-1.71,72.29-18.01,72.29-18.01l-65.27-55.94l14.4-17.52
					c0,0,48.48,28.93,82.96,51.99c0,0,0.25,0.13,0.64,0.44c19.61,15.43,12.74,42.32-7.38,54.94c-10.02,6.29-53.96,25.24-62.48,29.39
					c-17.01,8.29-16.74,8.01-16.74,8.01L300.74,247.13z"/>
			</g>
			<g>
				<g>
					<g>
						<path class="st7" d="M289.98,119.27l-3-2.86l-32.42,13.06c-4.69,0.26-8.4,4.06-8.54,8.76l0.28,105.62
							c-0.04,7.16,1.39,13.37,5.72,19.07l4.55,6.01c10.38,13.71,31.74,12.58,39.95-2.52c0.57-1.06,0.97-1.98,1.15-2.73
							c0.17-0.94,0.43-1.56,0.48-2.36c0.96-8.5,1.02-15.87,1.02-15.87c0.58-9.33,0.77-13.16,0.77-13.07c0,0,19.86-2.28,25.22-27.77
							c2.67-12.68,2.17-30.11,1.42-47.28C325.55,133.6,309.07,119.25,289.98,119.27z"/>
					</g>
				</g>
				<g>
					<g>
						<g>
							<g>
								<g>
									<g>
										<g>
											<g>
												<g>
													<g>
														<path class="st3" d="M287.98,174.29c-0.03,1.74-1.52,3.16-3.34,3.16c-1.82,0.01-3.27-1.4-3.25-3.14
															c0.03-1.74,1.52-3.16,3.34-3.17C286.55,171.14,288,172.55,287.98,174.29z"/>
													</g>
												</g>
											</g>
										</g>
									</g>
								</g>
							</g>
						</g>
					</g>
				</g>
				<g>
					<g>
						<g>
							<g>
								<g>
									<g>
										<g>
											<g>
												<g>
													<g>
														<path class="st3" d="M320.14,175.21c-0.03,1.74-1.52,3.16-3.34,3.16c-1.82,0.01-3.27-1.4-3.25-3.14
															c0.03-1.74,1.52-3.16,3.34-3.17C318.71,172.06,320.17,173.47,320.14,175.21z"/>
													</g>
												</g>
											</g>
										</g>
									</g>
								</g>
							</g>
						</g>
					</g>
				</g>
				<g>
					<g>
						<g>
							<g>
								<g>
									<g>
										<g>
											<g>
												<g>
													<g>
														<g>
															<path class="st3" d="M323.19,164.14c-0.43,0.41-2.83-1.56-6.38-1.73c-3.54-0.22-6.23,1.48-6.6,1.02
																c-0.18-0.2,0.28-0.96,1.45-1.72c1.16-0.77,3.1-1.47,5.31-1.35c2.21,0.12,4.03,1.03,5.05,1.92
																C323.07,163.16,323.41,163.95,323.19,164.14z"/>
														</g>
													</g>
												</g>
											</g>
										</g>
									</g>
								</g>
							</g>
						</g>
					</g>
				</g>
				<g>
					<g>
						<g>
							<g>
								<g>
									<g>
										<g>
											<g>
												<g>
													<g>
														<g>
															<path class="st3" d="M287.21,164.5c-0.47,0.36-2.66-1.85-6.17-2.38c-3.5-0.58-6.35,0.83-6.67,0.34
																c-0.16-0.22,0.37-0.92,1.62-1.57c1.23-0.64,3.23-1.14,5.42-0.8c2.18,0.35,3.9,1.44,4.83,2.42
																C287.19,163.52,287.44,164.34,287.21,164.5z"/>
														</g>
													</g>
												</g>
											</g>
										</g>
									</g>
								</g>
							</g>
						</g>
					</g>
				</g>
				<g>
					<g>
						<g>
							<g>
								<g>
									<g>
										<g>
											<g>
												<g>
													<g>
														<path class="st3" d="M299.6,190.31c-0.01-0.2,2.22-0.47,5.81-0.75c0.91-0.05,1.78-0.19,1.96-0.8
															c0.25-0.64-0.08-1.64-0.47-2.71c-0.74-2.23-1.52-4.57-2.33-7.03c-3.23-10-5.51-18.21-5.11-18.33
															c0.4-0.13,3.35,7.88,6.57,17.88c0.77,2.47,1.51,4.82,2.22,7.06c0.29,1.05,0.82,2.24,0.29,3.58
															c-0.28,0.66-0.97,1.12-1.56,1.25c-0.59,0.15-1.1,0.13-1.55,0.14C301.83,190.61,299.6,190.51,299.6,190.31z"/>
													</g>
												</g>
											</g>
										</g>
									</g>
								</g>
							</g>
						</g>
					</g>
				</g>
				<g>
					<g>
						<g>
							<g>
								<g>
									<g>
										<g>
											<g>
												<g>
													<path class="st8" d="M299.95,232.39c0,0-17.34,0.25-33.95-10.9c0,0,7.76,18.22,33.59,17.1L299.95,232.39z"/>
												</g>
											</g>
										</g>
									</g>
								</g>
							</g>
						</g>
					</g>
				</g>
				<g>
					<g>
						<g>
							<g>
								<g>
									<g>
										<path class="st3" d="M274.7,150.69c0.13-1.02,3.68-1.36,7.63-2.78c3.98-1.34,6.98-3.28,7.71-2.56
											c0.33,0.35-0.04,1.36-1.15,2.58c-1.1,1.21-3,2.55-5.37,3.38c-2.38,0.82-4.7,0.95-6.31,0.69
											C275.58,151.74,274.66,151.18,274.7,150.69z"/>
									</g>
								</g>
							</g>
						</g>
					</g>
				</g>
				<g>
					<g>
						<g>
							<g>
								<g>
									<g>
										<path class="st3" d="M320.81,150.66c-0.66,0.77-3.06-0.18-6-0.37c-2.93-0.29-5.45,0.27-5.98-0.6
											c-0.23-0.42,0.2-1.21,1.33-1.92c1.11-0.71,2.93-1.24,4.95-1.07c2.01,0.17,3.73,0.98,4.71,1.86
											C320.8,149.43,321.1,150.28,320.81,150.66z"/>
									</g>
								</g>
							</g>
						</g>
					</g>
				</g>
				<g>
					<g>
						<path class="st3" d="M246.67,183.31c0,0,18.16,5.65,28.44-39.17c3.51-15.33,17.72-27.74,17.72-27.74l-5.76-1.73
							c0,0-35.81,10.09-36.41,10.54c-0.6,0.45-9.03,18.52-9.03,18.52L246.67,183.31z"/>
					</g>
				</g>
				<g>
					<g>
						<path class="st7" d="M251.14,181.64c0.09-1.91-1.89-6.53-3.77-6.92c-5.01-1.04-14.12-1.09-14.85,11.72
							c-0.99,17.51,16.79,14.9,16.85,14.4C249.42,200.44,250.83,188.25,251.14,181.64z"/>
					</g>
				</g>
				<g>
					<g>
						<path class="st8" d="M244.4,193.9c-0.07-0.06-0.32,0.2-0.85,0.4c-0.52,0.2-1.39,0.31-2.28-0.08c-1.81-0.78-3.2-3.81-3.11-6.97
							c0.05-1.6,0.47-3.1,1.1-4.32c0.61-1.25,1.49-2.1,2.43-2.21c0.94-0.16,1.57,0.43,1.75,0.94c0.21,0.5,0.08,0.85,0.17,0.88
							c0.05,0.05,0.39-0.27,0.29-1c-0.05-0.35-0.23-0.78-0.63-1.14c-0.4-0.37-1.01-0.57-1.66-0.54c-1.36,0.02-2.64,1.19-3.34,2.53
							c-0.77,1.35-1.28,3.03-1.33,4.82c-0.09,3.54,1.53,6.94,4.02,7.81c1.21,0.39,2.26,0.08,2.82-0.31
							C244.35,194.32,244.46,193.93,244.4,193.9z"/>
					</g>
				</g>
				<g>
					<g>
						<path class="st3" d="M258.98,174.74c-0.01-0.06,0.97-0.06,2.62-0.53c1.65-0.46,3.96-1.54,6.24-3.62
							c1.13-1.04,2.24-2.31,3.25-3.81c0.99-1.51,1.88-3.23,2.65-5.12c1.55-3.77,2.54-8.17,3.77-12.73
							c1.23-4.57,2.56-8.88,4.03-12.72c1.44-3.84,3.05-7.19,4.56-9.89c1.52-2.71,2.96-4.78,4.01-6.15c0.52-0.7,0.97-1.2,1.25-1.55
							c0.29-0.35,0.45-0.53,0.47-0.52c0.01,0.01-0.12,0.21-0.39,0.58c-0.26,0.37-0.69,0.89-1.18,1.6c-1.01,1.4-2.39,3.49-3.87,6.2
							c-1.47,2.71-3.03,6.05-4.45,9.89c-1.44,3.83-2.75,8.13-3.98,12.69c-1.22,4.55-2.23,8.97-3.82,12.78
							c-0.78,1.9-1.7,3.65-2.72,5.17c-1.04,1.51-2.19,2.8-3.35,3.84c-2.34,2.09-4.72,3.14-6.41,3.55
							C259.96,174.81,258.98,174.74,258.98,174.74z"/>
					</g>
				</g>
				<g>
					<g>
						<g>
							<path class="st9" d="M235.05,249.46c-0.02,0-0.08-0.28-0.19-0.85c-0.11-0.62-0.26-1.44-0.44-2.49
								c-0.37-2.25-0.9-5.45-1.58-9.51l0.42-0.06c0.09,0.64,0.19,1.34,0.29,2.07l-0.02-0.07c0.11,0.24,0.24,0.51,0.37,0.79
								l-0.44,0.16c-2.07-7.16-4.35-16.8-5.62-28.19c-0.65-5.69-1.03-11.81-1.07-18.23c0.06-6.4,0.02-13.2,1.73-19.99
								c0.71-2.81,1.78-5.5,3.18-7.95c1.4-2.45,3.07-4.68,4.84-6.74c3.56-4.11,7.4-7.65,10.9-11.16c7.07-6.95,13.44-13.22,18.8-18.5
								c5.34-5.21,9.68-9.44,12.72-12.42c1.48-1.42,2.65-2.54,3.49-3.35c0.38-0.35,0.68-0.63,0.92-0.86
								c0.21-0.19,0.32-0.28,0.33-0.27c0.01,0.01-0.08,0.12-0.28,0.33c-0.23,0.24-0.51,0.54-0.87,0.91
								c-0.81,0.83-1.95,1.99-3.38,3.45c-3.01,3.02-7.28,7.31-12.54,12.6c-5.33,5.31-11.66,11.62-18.68,18.62
								c-3.49,3.53-7.32,7.08-10.82,11.15c-3.5,4.05-6.52,8.84-7.85,14.38c-1.68,6.64-1.65,13.41-1.73,19.79
								c0.03,6.39,0.38,12.49,1,18.16c1.2,11.35,3.39,20.97,5.36,28.14l-0.44,0.16c-0.13-0.28-0.25-0.55-0.36-0.79l-0.01-0.03
								l0-0.03c-0.09-0.73-0.18-1.44-0.26-2.07l0.42-0.06c0.59,4.07,1.05,7.28,1.38,9.54c0.14,1.06,0.25,1.89,0.33,2.51
								C235.04,249.16,235.07,249.45,235.05,249.46z"/>
						</g>
					</g>
				</g>
				<g>
					<g>
						<g>
							<path class="st9" d="M221.26,168.5c-0.02-0.01,0.08-0.27,0.31-0.74c0.27-0.55,0.61-1.23,1.02-2.06
								c0.89-1.79,2.29-4.31,4.12-7.37c1.82-3.06,4.17-6.61,6.93-10.44c2.79-3.8,6.02-7.86,9.65-11.92
								c3.65-4.04,7.35-7.69,10.83-10.87c3.51-3.15,6.79-5.86,9.64-8c2.84-2.15,5.2-3.81,6.88-4.88c0.78-0.5,1.42-0.9,1.93-1.23
								c0.45-0.27,0.69-0.41,0.7-0.38c0.02,0.02-0.2,0.2-0.61,0.52c-0.5,0.36-1.11,0.81-1.85,1.36c-1.62,1.15-3.93,2.87-6.72,5.07
								c-2.8,2.19-6.02,4.93-9.49,8.09c-3.44,3.2-7.1,6.84-10.74,10.86c-3.61,4.04-6.84,8.07-9.65,11.83
								c-2.78,3.78-5.16,7.28-7.04,10.3c-1.89,3.01-3.36,5.48-4.33,7.22c-0.46,0.8-0.84,1.45-1.15,1.98
								C221.44,168.29,221.29,168.52,221.26,168.5z"/>
						</g>
					</g>
				</g>
			</g>
			<g>
				<g>
					<g>
						<path class="st9" d="M245.5,243.86c0,0-0.03-0.01-0.07-0.02C245.46,243.85,245.47,243.85,245.5,243.86z"/>
					</g>
					<g>
						<path class="st9" d="M245.43,243.84c-0.07-0.02-0.13-0.04-0.18-0.06C245.33,243.8,245.39,243.82,245.43,243.84z"/>
					</g>
					<g>
						<path class="st9" d="M377.14,465.23l-25.1-76.52l-1.98-72.72c-0.62-12.54-1.54-30.88-1.54-30.88
							c-8.19-25.62-34.23-47.25-34.23-47.25l-14.78,2.21c-0.57,15.99-24.97,30.51-42.52,19.91c-6.49-4.66-11.49-16.12-11.49-16.12
							l-29.82,14.42l20.48,146.38c0,0-20.2,37.69-20.2,60.57H377.14z"/>
					</g>
					<g>
						<path class="st9" d="M245.26,243.78c-0.06-0.02-0.12-0.04-0.17-0.06C245.13,243.74,245.18,243.75,245.26,243.78z"/>
					</g>
					<g>
						<path class="st9" d="M245.09,243.72C244.95,243.68,244.98,243.69,245.09,243.72L245.09,243.72z"/>
					</g>
				</g>
				<g class="st10">
					<g>
						<path d="M234.16,387.19c3.67,9.36,10.87,17.6,20.3,21.08c9.43,3.48,21.02,1.51,27.8-5.91c4.16-4.56,6.25-10.63,7.58-16.66
							c1.16-5.3,1.82-10.7,2.44-16.09c3.16-27.38,5.46-55.03,2.93-82.47l-3.74-31.68l-10.82,6.1l-5.02,112.82L234.16,387.19z"/>
					</g>
				</g>
				<g>
					<path class="st9" d="M299.8,239.49c0,0,21.73-5.46,39.4-5.93l29.31-7.4l5.01,52.36l-27.94,17.93L299.8,239.49z"/>
				</g>
				<g>
					<path class="st9" d="M248.11,320.01l-51.46,25.82c0,0-14.25-76.36,18.88-87.54l1.91,10.85L248.11,320.01z"/>
				</g>
				<g>
					<g>
						<path class="st3" d="M346.89,254.31c0.01,0,0.02,0.12,0.04,0.35c0.02,0.26,0.05,0.59,0.08,1.02c0.06,0.93,0.15,2.24,0.26,3.91
							c0.22,3.4,0.48,8.31,0.79,14.39c0.61,12.15,1.32,28.95,2,47.51c0.68,18.56,1.21,35.37,1.55,47.53
							c0.15,6.06,0.28,10.97,0.37,14.41c0.03,1.68,0.05,2.99,0.07,3.92c0,0.43,0,0.76,0,1.02c0,0.23-0.01,0.35-0.02,0.35
							c-0.01,0-0.02-0.12-0.04-0.35c-0.01-0.26-0.03-0.59-0.06-1.02c-0.04-0.93-0.1-2.24-0.17-3.91c-0.13-3.43-0.31-8.34-0.53-14.4
							c-0.44-12.19-1.04-28.98-1.7-47.52c-0.72-18.54-1.38-35.32-1.85-47.51c-0.26-6.05-0.48-10.97-0.62-14.4
							c-0.07-1.68-0.12-2.99-0.16-3.92c-0.01-0.43-0.02-0.76-0.03-1.02C346.88,254.43,346.88,254.31,346.89,254.31z"/>
					</g>
				</g>
				<g>
					<g>
						<path class="st3" d="M196.65,345.82c0-0.01,0.07-0.05,0.21-0.13c0.17-0.09,0.38-0.21,0.63-0.34c0.6-0.31,1.41-0.74,2.44-1.28
							c2.17-1.11,5.24-2.68,9.02-4.62c7.67-3.87,18.2-9.18,29.83-15.05c2.14-1.07,4.25-2.13,6.26-3.14l-0.12,0.32
							c-1.02-2.68-1.88-5.29-3.12-7.64c-1.15-2.42-2.05-4.82-2.92-7.08c-1.7-4.53-3.46-8.47-4.91-11.78
							c-1.45-3.3-2.58-5.97-3.31-7.83c-0.36-0.93-0.64-1.65-0.81-2.14c-0.18-0.49-0.26-0.75-0.25-0.76
							c0.02-0.01,0.13,0.24,0.33,0.72c0.22,0.52,0.52,1.22,0.89,2.11c0.78,1.83,1.96,4.48,3.45,7.76c1.48,3.29,3.29,7.22,5.02,11.75
							c0.88,2.25,1.79,4.64,2.93,7.03c1.25,2.36,2.15,5.02,3.16,7.67l0.08,0.22l-0.21,0.1c-2.01,1.01-4.11,2.06-6.25,3.14
							c-11.66,5.82-22.21,11.08-29.9,14.92c-3.81,1.87-6.9,3.39-9.09,4.47c-1.05,0.5-1.88,0.9-2.48,1.19
							c-0.26,0.12-0.48,0.22-0.65,0.3C196.73,345.8,196.66,345.83,196.65,345.82z"/>
					</g>
				</g>
			</g>
			<g>
				<path class="st8" d="M303.77,198.91c-1.97-1.37-4.31-2.21-6.7-2.4c-0.75-0.06-1.53-0.05-2.23,0.23
					c-1.06,0.43-1.78,1.46-2.12,2.55c-0.34,1.09-0.36,2.25-0.38,3.39c-0.01,0.43-0.01,0.89,0.2,1.27c0.37,0.7,1.28,0.91,2.07,0.97
					c2.7,0.23,5.46-0.28,7.91-1.45"/>
			</g>
			<g>
				<path class="st7" d="M203.2,342.54c10.51,24.44,30.5,49.25,42.82,53.78c18.36,6.76,33.55,3.4,40.58-18.98
					c7.03-22.38,2.53-121.8,2.53-121.8l-30.6-1.76l-5.67,85.66c0,0-3.38-6.65-9.33-17.15"/>
			</g>
			<g>
				<g>
					<g>
						<path class="st7" d="M334.33,163.94l-7.7-5.62l-1.18-9.66c0,0-13.92,0.36-14.77-7.1c0,0-8.03,2.13-7.64-5.75
							c0,0-4.09-2.77-2.59-5.33c1.49-2.56,13.02-6.36,13.66-6.58c0.64-0.21,8.18-1.81,8.18-1.81l-2.23-2.49l-5.97,0.64
							c0,0-3.62,3.41-6.61,3.84c-2.98,0.43-3.2-0.85-3.2-0.85s-3.41-3.62,1.07-7.25c4.48-3.62,10.23-4.9,13.21-5.11
							c2.98-0.21,6.98,5.54,6.98,5.54l3.25,5.76c0,0,6.39-0.85,8.52,4.05v3.41c0,0,4.69-0.64,6.61,4.9l1.28,4.9
							c0,0,5.54,7.25,5.75,10.23"/>
					</g>
					<g>
						<g>
							<path class="st8" d="M350.95,149.66c-0.02,0-0.05-0.26-0.18-0.76c-0.14-0.49-0.43-1.2-0.88-2.1
								c-0.92-1.78-2.51-4.28-4.79-7.3l-0.02-0.02l-0.01-0.03c-0.39-1.46-0.83-3.12-1.3-4.9l0,0.01c-0.42-1.22-1.12-2.47-2.23-3.41
								c-1.1-0.93-2.65-1.49-4.21-1.36l-0.21,0.02l0-0.2c0-1.05-0.01-2.22-0.01-3.41l0.02,0.08c-0.62-1.38-1.77-2.59-3.3-3.22
								c-1.51-0.65-3.28-0.86-5.02-0.69l-0.15,0.01l-0.07-0.12c-1.02-1.8-2.12-3.75-3.26-5.75l0.01,0.02
								c-0.69-0.96-1.47-1.9-2.32-2.78c-0.85-0.87-1.79-1.71-2.88-2.26c-0.55-0.27-1.12-0.41-1.73-0.37
								c-0.63,0.05-1.27,0.14-1.9,0.25c-1.27,0.23-2.54,0.55-3.8,0.96c-2.5,0.83-4.96,2.04-7.11,3.75
								c-1.07,0.83-1.97,1.92-2.26,3.23c-0.26,1.3,0.23,2.72,1.1,3.73l0.04,0.05l0.02,0.08c0.06,0.23,0.41,0.5,0.79,0.59
								c0.38,0.11,0.8,0.14,1.23,0.13c0.86-0.03,1.7-0.21,2.51-0.56c1.62-0.7,3.11-1.79,4.5-2.98c0.12-0.1,0.23-0.21,0.34-0.31
								l0.07-0.06l0.08-0.01c2.01-0.22,4-0.43,5.97-0.64l0.13-0.01l0.09,0.1c0.75,0.84,1.49,1.66,2.23,2.49l0.3,0.33l-0.44,0.1
								c-2.62,0.58-5.21,1.15-7.75,1.71c-2.5,0.74-4.89,1.68-7.22,2.62c-1.16,0.48-2.29,1-3.39,1.55c-1.08,0.56-2.17,1.15-2.99,1.95
								c-0.38,0.4-0.61,0.92-0.62,1.45c-0.01,0.54,0.18,1.08,0.46,1.56c0.58,0.96,1.44,1.77,2.34,2.42l0.1,0.07l0,0.13
								c0.02,0.49-0.01,0.99,0.04,1.48c0.09,0.48,0.12,0.97,0.32,1.4c0.3,0.9,0.88,1.69,1.68,2.15c1.6,0.94,3.6,0.88,5.31,0.51
								l0.24-0.05l0.02,0.23c0.17,1.65,1.14,3.05,2.38,3.97c1.24,0.94,2.68,1.52,4.09,1.93c2.83,0.81,5.6,1.05,8.09,1.06l0.15,0
								l0.02,0.14c0.45,3.83,0.83,7.02,1.14,9.67l-0.05-0.08c2.48,1.84,4.39,3.25,5.7,4.23c0.63,0.47,1.11,0.84,1.45,1.1
								c0.32,0.25,0.48,0.39,0.48,0.39s-0.18-0.11-0.52-0.34c-0.35-0.25-0.85-0.6-1.49-1.05c-1.33-0.95-3.26-2.34-5.77-4.14
								l-0.04-0.03l-0.01-0.05c-0.34-2.64-0.74-5.83-1.23-9.66l0.16,0.14c-2.53,0.01-5.31-0.21-8.2-1.02
								c-1.44-0.42-2.91-1-4.22-1.98c-1.31-0.95-2.38-2.47-2.56-4.24l0.26,0.18c-0.92,0.22-1.86,0.3-2.82,0.25
								c-0.96-0.06-1.95-0.27-2.82-0.8c-0.89-0.51-1.55-1.4-1.88-2.37c-0.22-0.48-0.25-1-0.35-1.51c-0.06-0.51-0.03-1.03-0.05-1.55
								l0.1,0.2c-0.96-0.7-1.84-1.51-2.49-2.57c-0.31-0.53-0.54-1.15-0.53-1.81c0.01-0.66,0.3-1.3,0.75-1.78
								c0.92-0.89,2.01-1.48,3.11-2.05c1.11-0.56,2.25-1.09,3.42-1.57c2.34-0.96,4.74-1.9,7.25-2.65c2.56-0.57,5.16-1.14,7.81-1.73
								l-0.14,0.43c-0.74-0.82-1.48-1.65-2.23-2.49l0.22,0.08c-1.97,0.21-3.96,0.42-5.97,0.64l0.15-0.07
								c-0.12,0.11-0.24,0.21-0.36,0.32c-1.42,1.21-2.94,2.32-4.64,3.06c-0.85,0.37-1.79,0.58-2.7,0.6
								c-0.46,0.01-0.93-0.01-1.39-0.15c-0.45-0.14-0.96-0.38-1.15-1l0.07,0.13c-0.99-1.15-1.52-2.69-1.23-4.19
								c0.16-0.74,0.5-1.41,0.92-2c0.23-0.28,0.46-0.56,0.72-0.81c0.27-0.24,0.53-0.49,0.8-0.71c2.2-1.75,4.72-2.98,7.27-3.83
								c1.28-0.42,2.57-0.74,3.87-0.97c0.65-0.11,1.3-0.2,1.95-0.25c0.69-0.05,1.39,0.13,1.98,0.42c1.18,0.61,2.13,1.48,3.01,2.37
								c0.87,0.91,1.65,1.85,2.36,2.84l0.01,0.01l0.01,0.01c1.13,2.01,2.22,3.96,3.24,5.76l-0.22-0.11
								c1.83-0.17,3.64,0.06,5.24,0.75c1.61,0.66,2.85,1.98,3.49,3.44l0.02,0.04l0,0.04c0,1.19-0.01,2.36-0.01,3.41l-0.21-0.18
								c1.71-0.13,3.31,0.48,4.47,1.47c1.16,1,1.88,2.31,2.3,3.57l0,0.01l0,0c0.46,1.78,0.88,3.44,1.26,4.91l-0.02-0.05
								c2.26,3.05,3.82,5.58,4.71,7.39c0.43,0.91,0.71,1.63,0.83,2.14C350.96,149.39,350.95,149.66,350.95,149.66z"/>
						</g>
					</g>
				</g>
				<g>
					<g>
						<path class="st8" d="M337.25,153.58c-0.06,0.06-0.57-0.47-1.52-1.16c-0.95-0.69-2.36-1.5-4.04-2.12
							c-1.7-0.6-3.25-1.13-4.4-1.34c-1.15-0.22-1.89-0.2-1.89-0.28c-0.01-0.06,0.74-0.21,1.95-0.08c1.22,0.13,2.8,0.61,4.53,1.22
							c1.73,0.64,3.17,1.53,4.09,2.32C336.87,152.92,337.29,153.55,337.25,153.58z"/>
					</g>
				</g>
				<g>
					<g>
						<path class="st8" d="M339.5,139.56c0,0.04-0.41,0.08-1.16,0.14c-0.86,0.05-1.91,0.11-3.16,0.18
							c-2.67,0.13-6.36,0.27-10.43,0.4c-2.03,0.06-3.97,0.11-5.74,0.16c-1.76,0.02-3.34,0.1-4.66,0.27
							c-1.32,0.16-2.37,0.39-3.07,0.61c-0.71,0.22-1.07,0.41-1.1,0.37c-0.02-0.02,0.32-0.28,1.03-0.56c0.7-0.28,1.76-0.57,3.09-0.78
							c1.33-0.22,2.93-0.34,4.7-0.38c1.78-0.06,3.71-0.13,5.74-0.2c4.07-0.12,7.76-0.21,10.43-0.24c1.25-0.01,2.31-0.01,3.16-0.01
							C339.09,139.5,339.5,139.52,339.5,139.56z"/>
					</g>
				</g>
				<g>
					<g>
						<path class="st8" d="M333.09,130.59c0,0.04-0.41,0.12-1.17,0.24c-0.87,0.13-1.94,0.29-3.21,0.48
							c-2.71,0.4-6.46,0.99-10.57,1.74c-4.11,0.76-7.82,1.55-10.5,2.15c-1.26,0.28-2.32,0.51-3.17,0.7
							c-0.75,0.16-1.17,0.23-1.18,0.2c-0.01-0.03,0.39-0.17,1.13-0.39c0.74-0.22,1.81-0.52,3.14-0.86c2.66-0.69,6.36-1.54,10.49-2.3
							c4.12-0.76,7.89-1.29,10.62-1.6c1.37-0.15,2.47-0.26,3.24-0.32C332.66,130.57,333.08,130.55,333.09,130.59z"/>
					</g>
				</g>
				<g>
					<g>
						<path class="st8" d="M320.42,115.87c0.13-0.04,0.5,0.8,0.44,1.9c-0.05,1.11-0.5,1.91-0.63,1.85
							c-0.14-0.05,0.06-0.87,0.11-1.87C320.4,116.74,320.28,115.91,320.42,115.87z"/>
					</g>
				</g>
			</g>
			<g>
				<g>
					<path class="st9" d="M225.36,183.34c8.46,11.2,30.49,43.63,39.46,55.24c1.89,2.45,7.4,1.54,9.83-0.37
						c5.78-4.55,15.9-12.45,21.94-16.78c2.56-1.84,3.09-5.42,1.17-7.92l-42.91-55.74c-1.99-2.58-5.76-2.91-8.16-0.71l-20.62,18.83
						C223.93,177.82,223.63,181.05,225.36,183.34z"/>
				</g>
				<g>
					<g>
						<path class="st7" d="M257.75,352.6l-4.89-13.15l5.67-85.66c0,0-11.29-20.57-12.54-25.08c-1.25-4.51-1.57-17.6-1.57-17.6
							l7.89,9.15c0,0,0.22-15.73,0.22-21c0,0,1.13-19.78,1.32-22.52c0.19-2.74,2.97-4.22,4.76-4.22s3.53,3.27,3.53,3.27l2.41,32.34
							c0,0,3.98-17.01,5.48-19.26c1.51-2.26,6.7-3.33,10.22-3.08c0.04,0,0.07,0.01,0.1,0.01c2.73,0.25,3.61,3.82,1.37,5.39
							l-4.63,3.24l-1.75,16.22c0,0,4.26-14.05,6.52-15.8c2.26-1.76,6.27,0,7.02,2.01c0.75,2.01-2.01,6.02-2.01,6.02l-0.75,10.03
							c0,0,3.01-4.26,4.49-6.52c1.48-2.26,5.29,0,5.75,1c0.46,1-2.72,11.83-2.72,11.83l-4.51,36.33l1.42,52.31"/>
					</g>
					<g>
						<g>
							<path class="st8" d="M290.55,307.86c0,0-0.02-0.3-0.05-0.9c-0.02-0.61-0.05-1.5-0.09-2.66c-0.07-2.35-0.18-5.81-0.32-10.3
								c-0.26-8.99-0.64-22.06-1.12-38.44l0-0.01l0-0.01c1.32-10.74,2.82-22.93,4.48-36.33l0-0.02l0-0.02
								c0.58-2.01,1.15-4.07,1.69-6.17c0.26-1.05,0.53-2.11,0.75-3.18c0.11-0.54,0.21-1.08,0.28-1.62c0.02-0.26,0.04-0.55,0-0.71
								c-0.1-0.19-0.3-0.38-0.49-0.56c-0.82-0.67-1.87-1.17-2.93-1.27c-0.53-0.04-1.06,0.06-1.47,0.36c-0.4,0.28-0.67,0.8-1.01,1.27
								c-1.3,1.89-2.62,3.81-3.95,5.75l-0.47,0.68l0.06-0.83c0.23-3.1,0.49-6.54,0.75-10.03l0-0.06l0.04-0.05
								c0.68-1.04,1.3-2.17,1.73-3.35c0.21-0.59,0.37-1.21,0.36-1.8c0-0.59-0.29-1.12-0.72-1.57c-0.86-0.88-2.08-1.45-3.32-1.61
								c-1.22-0.17-2.62,0.18-3.27,1.27c-0.72,1.06-1.28,2.29-1.8,3.51c-0.52,1.23-1.01,2.49-1.47,3.76
								c-0.93,2.54-1.79,5.14-2.61,7.77l-0.48-0.1c0.55-5.1,1.14-10.62,1.75-16.22l0.01-0.11l0.09-0.07
								c1.45-1.02,2.91-2.04,4.38-3.07c0.74-0.46,1.25-1.14,1.38-1.97c0.12-0.81-0.12-1.69-0.68-2.29
								c-0.56-0.64-1.38-0.86-2.27-0.86c-0.89-0.03-1.79,0.02-2.68,0.12c-1.78,0.22-3.58,0.64-5.15,1.48
								c-0.78,0.43-1.49,0.98-1.86,1.77c-0.38,0.8-0.67,1.68-0.96,2.55c-0.56,1.75-1.07,3.54-1.55,5.34
								c-0.97,3.6-1.87,7.24-2.74,10.92l-0.39,1.64l-0.13-1.68c-0.33-4.36-0.67-9.04-1.03-13.75c-0.47-6.26-0.93-12.46-1.39-18.6
								l0.03,0.1c-0.57-1.01-1.28-2.01-2.18-2.69c-0.88-0.74-2.1-0.39-3.12,0.08c-1.02,0.5-1.89,1.34-2.27,2.39
								c-0.2,0.52-0.24,1.07-0.27,1.67l-0.1,1.77c-0.28,4.72-0.55,9.39-0.82,14.01c-0.12,2.31-0.31,4.61-0.37,6.89
								c-0.02,2.29-0.05,4.56-0.07,6.82c-0.05,4.52-0.1,8.99-0.14,13.39l-0.01,0.65l-0.43-0.5c-2.67-3.1-5.29-6.15-7.88-9.15
								l0.42-0.16c0.12,4.06,0.32,8.07,0.69,11.99c0.21,1.95,0.41,3.91,0.93,5.75c0.61,1.81,1.45,3.56,2.26,5.27
								c3.32,6.86,6.81,13.36,10.18,19.57l0.03,0.06l0,0.06c-2.67,39.51-4.72,69.79-5.79,85.65l-0.01-0.04
								c1.62,4.4,2.83,7.69,3.63,9.89c0.39,1.09,0.69,1.91,0.89,2.46c0.2,0.55,0.28,0.82,0.28,0.82s-0.12-0.27-0.32-0.81
								c-0.21-0.55-0.52-1.37-0.93-2.45c-0.83-2.19-2.06-5.47-3.71-9.86l-0.01-0.02l0-0.02c1.03-15.86,2.98-46.15,5.54-85.66
								l0.03,0.12c-3.38-6.21-6.88-12.7-10.22-19.58c-0.82-1.73-1.66-3.46-2.29-5.34c-0.54-1.91-0.73-3.87-0.95-5.83
								c-0.38-3.94-0.58-7.95-0.71-12.03l-0.02-0.68l0.45,0.52c2.59,3,5.22,6.05,7.89,9.15l-0.43,0.16
								c0.04-4.4,0.09-8.87,0.13-13.39c0.02-2.26,0.05-4.54,0.07-6.83c0.06-2.29,0.25-4.59,0.36-6.9c0.27-4.63,0.54-9.3,0.82-14.03
								l0.1-1.77c0.02-0.57,0.07-1.23,0.3-1.82c0.44-1.2,1.41-2.12,2.52-2.67c0.56-0.28,1.16-0.47,1.79-0.55
								c0.3-0.03,0.66-0.05,0.99,0.06c0.33,0.09,0.61,0.27,0.87,0.45c1.02,0.78,1.72,1.8,2.33,2.87l0.03,0.04l0,0.06
								c0.46,6.13,0.92,12.33,1.39,18.6c0.35,4.71,0.7,9.38,1.03,13.75l-0.51-0.04c0.87-3.68,1.78-7.33,2.75-10.94
								c0.49-1.8,0.99-3.59,1.56-5.36c0.29-0.89,0.58-1.76,0.99-2.63c0.42-0.9,1.25-1.53,2.07-1.98c1.68-0.89,3.51-1.3,5.34-1.53
								c0.92-0.11,1.84-0.16,2.76-0.12c0.9-0.02,1.99,0.26,2.63,1.03c0.67,0.72,0.95,1.75,0.81,2.72c-0.08,0.48-0.26,0.95-0.54,1.35
								c-0.28,0.39-0.68,0.73-1.04,0.97c-1.47,1.03-2.93,2.05-4.38,3.06l0.11-0.18c-0.61,5.6-1.21,11.13-1.76,16.22l-0.48-0.1
								c0.82-2.64,1.68-5.24,2.62-7.8c0.46-1.28,0.96-2.54,1.49-3.78c0.54-1.24,1.09-2.47,1.86-3.6c0.17-0.29,0.46-0.55,0.72-0.79
								c0.29-0.21,0.61-0.37,0.94-0.5c0.67-0.24,1.38-0.26,2.06-0.18c1.36,0.19,2.65,0.78,3.61,1.76c0.47,0.48,0.85,1.17,0.85,1.88
								c0.01,0.7-0.17,1.35-0.38,1.97c-0.45,1.24-1.08,2.37-1.79,3.45l0.04-0.11c-0.26,3.49-0.52,6.93-0.76,10.03l-0.41-0.15
								c1.33-1.93,2.65-3.85,3.95-5.74l0.49-0.71c0.18-0.24,0.37-0.5,0.64-0.68c0.51-0.38,1.17-0.49,1.76-0.44
								c1.2,0.12,2.28,0.64,3.18,1.37c0.22,0.2,0.44,0.39,0.6,0.7c0.11,0.38,0.05,0.65,0.03,0.94c-0.07,0.56-0.17,1.11-0.29,1.65
								c-0.22,1.09-0.49,2.15-0.76,3.2c-0.54,2.11-1.12,4.17-1.7,6.19l0.01-0.03c-1.68,13.4-3.21,25.59-4.55,36.32l0-0.02
								c0.41,16.39,0.74,29.46,0.97,38.45c0.1,4.48,0.18,7.95,0.24,10.3c0.02,1.16,0.04,2.05,0.05,2.66
								C290.56,307.55,290.55,307.86,290.55,307.86z"/>
						</g>
					</g>
				</g>
				<g>
					<g>
						<path class="st8" d="M252.86,238.58c-0.07,0-0.17-1.35-0.28-3.55s-0.22-5.23-0.32-8.59c-0.09-3.36-0.15-6.39-0.16-8.59
							c-0.01-2.2,0.01-3.56,0.08-3.56c0.07,0,0.17,1.36,0.28,3.55c0.11,2.2,0.22,5.23,0.32,8.59c0.09,3.35,0.15,6.39,0.16,8.59
							C252.96,237.21,252.93,238.58,252.86,238.58z"/>
					</g>
				</g>
			</g>
			<g>
				<g>
					<path class="st3" d="M302.51,203.47c0.01,0.03-0.32,0.24-0.98,0.53c-0.65,0.29-1.64,0.65-2.9,0.91
						c-1.27,0.25-2.8,0.39-4.52,0.2c-0.43-0.07-0.9-0.19-1.31-0.48c-0.43-0.28-0.68-0.84-0.71-1.33c-0.03-0.96-0.02-1.88,0.11-2.89
						c0.13-0.99,0.46-1.97,1.06-2.74c0.58-0.78,1.49-1.3,2.38-1.38c1.76-0.14,3.26,0.26,4.49,0.64c1.22,0.41,2.14,0.92,2.75,1.3
						c0.6,0.39,0.9,0.65,0.88,0.68c-0.05,0.09-1.33-0.9-3.74-1.63c-1.19-0.33-2.72-0.67-4.32-0.52c-0.79,0.09-1.53,0.52-2.04,1.22
						c-0.53,0.69-0.83,1.56-0.95,2.5c-0.12,0.92-0.13,1.91-0.11,2.77c0.01,0.87,0.79,1.27,1.59,1.39c1.62,0.21,3.15,0.12,4.38-0.08
						C301.06,204.13,302.48,203.38,302.51,203.47z"/>
				</g>
			</g>
			<g>
				<g>
					<path class="st8" d="M417.22,225.29c0,0.06-1.03,0.14-2.71,0.04c-1.67-0.1-3.98-0.42-6.44-1.13c-2.46-0.71-4.59-1.66-6.05-2.46
						c-1.47-0.8-2.3-1.42-2.27-1.47c0.04-0.07,0.94,0.43,2.44,1.14c1.49,0.71,3.61,1.59,6.03,2.29c2.42,0.69,4.68,1.07,6.33,1.26
						C416.19,225.16,417.22,225.21,417.22,225.29z"/>
				</g>
			</g>
		</g>
	</g>
</g>
</svg>
