<?xml version="1.0" encoding="utf-8"?>
<!-- Generator: Adobe Illustrator 25.2.1, SVG Export Plug-In . SVG Version: 6.00 Build 0)  -->
<svg version="1.1" xmlns="http://www.w3.org/2000/svg" xmlns:xlink="http://www.w3.org/1999/xlink" x="0px" y="0px"
	 viewBox="0 0 500 500" style="enable-background:new 0 0 500 500;" xml:space="preserve">
<style type="text/css">
	.st0{fill:none;stroke:#263238;stroke-linecap:round;stroke-linejoin:round;stroke-miterlimit:10;}
	.st1{fill:#263238;}
	.st2{opacity:0.2;}
	.st3{fill:none;stroke:#FFFFFF;stroke-linecap:round;stroke-linejoin:round;stroke-miterlimit:10;}
	.st4{fill:#92E3A9;stroke:#263238;stroke-linecap:round;stroke-linejoin:round;stroke-miterlimit:10;}
	.st5{opacity:0.3;clip-path:url(#XMLID_2_);fill-opacity:0.7;}
	.st6{opacity:0.4;}
	.st7{fill:#FFFFFF;}
	.st8{fill:#3D2E1F;stroke:#263238;stroke-linecap:round;stroke-linejoin:round;stroke-miterlimit:10;}
	.st9{opacity:0.3;clip-path:url(#XMLID_3_);fill-opacity:0.7;}
	.st10{opacity:0.3;clip-path:url(#XMLID_4_);fill-opacity:0.7;}
	.st11{opacity:0.3;clip-path:url(#XMLID_5_);fill-opacity:0.7;}
	.st12{fill:#FFFFFF;stroke:#263238;stroke-linecap:round;stroke-linejoin:round;stroke-miterlimit:10;}
	.st13{fill:#165293;stroke:#263238;stroke-linecap:round;stroke-linejoin:round;stroke-miterlimit:10;}
	.st14{fill:#175084;stroke:#263238;stroke-linecap:round;stroke-linejoin:round;stroke-miterlimit:10;}
	.st15{opacity:0.3;clip-path:url(#XMLID_6_);fill-opacity:0.7;}
	.st16{opacity:0.3;fill-opacity:0.7;}
	.st17{opacity:0.3;clip-path:url(#XMLID_7_);fill-opacity:0.7;}
</style>
<g id="Graphics_1">
	<g>
		<path class="st0" d="M103.81,208.69c6.34-2.59,10.66,1.07,12.68,3.49c1.55-2.74,5.16-7.11,11.86-5.7
			c7.27,1.55,10.54,10.35,5.33,19.12c-3.76,6.31-10.31,10.98-13.68,13.09c-0.4,0.25-0.77,0.47-1.07,0.64
			c-0.33-0.12-0.73-0.26-1.17-0.44c-3.69-1.48-10.97-4.91-15.78-10.45C95.27,220.75,96.93,211.51,103.81,208.69z"/>
		<path class="st0" d="M134.27,244.74c3.12-0.44,4.64,1.68,5.26,2.99c1-1.05,3.1-2.59,5.94-1.2c3.07,1.51,3.54,5.81,0.22,9.13
			c-2.39,2.39-5.84,3.74-7.58,4.3c-0.21,0.07-0.4,0.12-0.55,0.17c-0.13-0.09-0.3-0.2-0.47-0.33c-1.48-1.08-4.34-3.43-5.86-6.44
			C129.09,249.16,130.88,245.22,134.27,244.74z"/>
	</g>
	<g>
		<path class="st0" d="M74.25,283.57c0,0,7.67-3.9,10.05-3.6c2.38,0.3-4.23,3,0,3c4.23,0,5.82-1.5,5.82-0.6c0,0.9,0.31,1.65,2.4,1.2
			c2.09-0.45,2.62,0.12,3.68,0.13c1.06,0.02,3.58-0.28,5.49-0.88c1.91-0.6,4.03-1.35,5.35-0.3c1.32,1.05,0.79,1.62,5.56,1.18
			c4.76-0.43,8.2,0.15,8.2,0.15"/>
		<path class="st0" d="M74.06,301.33c3.73-0.72,11.98-4.77,9.58-4.32c-2.4,0.45-6.92,3.15-1.07,3.3s7.19-1.95,8.79-2.55
			c1.6-0.6,7.19,0,7.99,0c0.8,0-4.53,1.13,0,1.39c4.53,0.26,4.97-0.56,6.74,0c1.78,0.56,4.71,0,4.71,0s0.83,0.86,5.08,1.01
			c4.24,0.15,7.44,0,7.44,0"/>
		<path class="st0" d="M71.14,291.94c0,0,11.18-0.51,13.31-1.11c2.13-0.6,1.06-2.1,3.99-1.5c2.93,0.6,4.79-0.58,7.32-0.14
			c2.53,0.44,9.11,0.01,6.26-1.06c-2.85-1.07-8.22,2.55-2.11,2.7c6.11,0.15,8.77-0.44,9.3-0.89c0.53-0.46,3.74,0.89,3.74,0.89
			s3.44-1.19,5.04-0.89c1.6,0.29,8.25,1.04,8.25,1.04"/>
	</g>
</g>
<g id="Graphics_3">
	<g>
		<path class="st0" d="M397.44,294.86c-0.5,3.25-0.11,6.42,1,9.28c0.54,1.44,1.27,2.81,2.16,4.05c2.77,3.92,7.07,6.75,12.19,7.53
			c10,1.52,19.34-5.35,20.86-15.35c1.52-10-5.35-19.34-15.35-20.86C408.31,277.99,398.96,284.86,397.44,294.86z"/>
		<path class="st0" d="M406.88,304.65c0,0,4.09-4.16,9.03-3.4c4.94,0.75,6.8,5,6.8,5"/>
		<path class="st0" d="M421.2,290.17c0,0,1.49,3.22,5.62,3.8"/>
		<path class="st0" d="M424.47,294.66c-0.13,0.87-0.95,1.47-1.81,1.33c-0.87-0.13-1.47-0.95-1.34-1.82
			c0.13-0.87,0.95-1.47,1.82-1.33C424.01,292.98,424.6,293.79,424.47,294.66z"/>
		<path class="st0" d="M424.37,295.35c0,0,1.56,0.4,0.82,2.16c-0.74,1.77,2.34,2.16,2.79,2.78c0.45,0.61-1.07,2.89,0.62,3.62
			c1.69,0.73,1.55,2.19,1.05,3.37c-0.17,0.4,0,1.02,0.29,1.67"/>
		<path class="st0" d="M422.66,296c0.01,1.6-0.54,2.61,1.74,4.13c2.27,1.52,0.04,3.29,0.45,4.22c0.41,0.92,2.99,0.43,1.47,3.26
			c-0.87,1.6-0.3,3.34,0.36,4.55"/>
		<path class="st0" d="M412.37,288.83c0,0-2.38,2.63-6.5,1.96"/>
		<path class="st0" d="M407.91,292.14c-0.13,0.87,0.47,1.68,1.33,1.82c0.87,0.13,1.68-0.47,1.82-1.33s-0.47-1.68-1.33-1.82
			C408.85,290.67,408.04,291.27,407.91,292.14z"/>
		<path class="st0" d="M398.44,304.14c0.47-0.53,0.82-1.07,0.78-1.5c-0.12-1.28,0.18-2.72,2.01-2.91c1.83-0.19,1.05-2.81,1.67-3.27
			c0.62-0.45,3.67,0.09,3.49-1.82c-0.18-1.9,1.42-1.82,1.42-1.82"/>
		<path class="st0" d="M400.6,308.19c0.98-0.96,2.05-2.45,1.7-4.24c-0.61-3.16,1.7-1.92,2.37-2.68c0.66-0.76-0.93-3.12,1.68-3.89
			c2.63-0.78,2.4-1.9,2.89-3.43"/>
	</g>
	<g>
		<path class="st0" d="M313.82,162.96c1.58,4.45,4.22,8.21,7.57,11.08c1.66,1.46,3.52,2.69,5.48,3.66
			c6.17,3.08,13.54,3.75,20.55,1.26c13.69-4.86,20.86-19.89,16-33.59c-4.86-13.69-19.89-20.86-33.59-16
			C316.14,134.23,308.97,149.27,313.82,162.96z"/>
		<path class="st0" d="M353.92,147.33c0,0-2.54,4.79-13.65,8.24c-9.82,3.05-17.72,2.41-17.72,2.41s4.58,18.42,22.31,13.78
			C362.59,167.13,353.92,147.33,353.92,147.33z"/>
		<path class="st0" d="M340.72,140.91c0,0-0.19-7.64,6.76-1.2"/>
		<path class="st0" d="M328.64,145.2c0,0-4.4-4.08-4.86,2.92"/>
		<path class="st0" d="M343.1,164.38c0,0,4.18-4.83,7.21-4.29c3.02,0.54,2.37,6.31-6.13,9.33c-8.51,3.02-12.11-0.93-11.9-3.99
			C332.48,162.36,343.1,164.38,343.1,164.38z"/>
		<path class="st0" d="M349.12,139.13c0,0,8.15-2.3,6.88,1.45C354.74,144.33,349.12,139.13,349.12,139.13z"/>
		<path class="st0" d="M322.2,148.68c0,0-6.88,1.54-5.22,4.23C318.64,155.6,322.2,148.68,322.2,148.68z"/>
	</g>
	<g>
		<path class="st0" d="M355.16,196.37c0,0,8.25-4.19,10.8-3.87c2.56,0.32-4.55,3.22,0,3.22c4.55,0,6.25-1.61,6.25-0.64
			c0,0.97,0.33,1.77,2.58,1.29c2.25-0.48,2.82,0.13,3.96,0.14c1.14,0.02,3.85-0.31,5.9-0.95c2.06-0.64,4.33-1.45,5.75-0.32
			c1.42,1.13,0.85,1.74,5.97,1.27c5.12-0.47,8.81,0.16,8.81,0.16"/>
		<path class="st0" d="M356.44,237.78c0,0,8.24-4.19,10.8-3.87c2.56,0.32-4.55,3.22,0,3.22c4.55,0,6.25-1.61,6.25-0.64
			c0,0.97,0.33,1.77,2.58,1.29c2.25-0.48,2.82,0.13,3.96,0.14c1.14,0.02,3.85-0.31,5.9-0.95c2.06-0.64,4.33-1.45,5.75-0.32
			c1.42,1.13,0.85,1.74,5.97,1.27c5.12-0.47,8.81,0.16,8.81,0.16"/>
		<path class="st0" d="M355.16,205.86c4.71-0.72,15.14-4.79,12.11-4.34c-3.03,0.45-8.75,3.17-1.35,3.32
			c7.4,0.15,9.08-1.96,11.1-2.56c2.02-0.6,9.08,0,10.09,0s-5.72,1.14,0,1.4c5.72,0.26,6.27-0.56,8.52,0c2.25,0.56,5.95,0,5.95,0
			s1.05,0.86,6.41,1.01c5.36,0.15,9.4,0,9.4,0"/>
		<path class="st0" d="M356.24,256.87c4.01-0.77,12.88-5.12,10.3-4.64c-2.58,0.48-7.44,3.38-1.14,3.55
			c6.29,0.16,7.73-2.09,9.44-2.74c1.72-0.64,7.73,0,8.58,0c0.86,0-4.86,1.22,0,1.5c4.86,0.28,5.34-0.6,7.25,0
			c1.91,0.6,5.06,0,5.06,0s0.89,0.92,5.45,1.08c4.56,0.16,7.99,0,7.99,0"/>
		<path class="st0" d="M355.16,230.73c3.98-0.77,12.79-5.12,10.24-4.64c-2.56,0.48-7.39,3.38-1.14,3.55
			c6.25,0.16,7.68-2.1,9.38-2.74c1.71-0.64,7.68,0,8.53,0c0.85,0-4.83,1.22,0,1.5c4.83,0.28,5.3-0.6,7.2,0c1.9,0.6,5.03,0,5.03,0
			s0.89,0.92,5.42,1.08c4.53,0.16,7.94,0,7.94,0"/>
		<path class="st0" d="M353.74,214.41c3.93-0.96,4.72-4.04,7.34-3.08c2.62,0.96,5.77,0.4,6.56-0.18c0.79-0.59,3.41-1.55,4.46-1.55
			c1.05,0,0,1.15,0,2.41c0,1.25,3.41,0.48,4.2,0c0.79-0.48,2.1-1.06,3.02,0c0.92,1.06,0.92,1.06,0.92,1.06s1.84,0,2.36-1.06
			c0.52-1.06,2.1-2.98,4.72-2.41c2.62,0.58-0.79,1.24,1.05,2.35c1.84,1.11,2.36-2.35,4.2-0.81c1.84,1.54,0,2.31,1.57,2.31
			s9.8-1.33,13.64-0.39"/>
		<path class="st0" d="M355.16,222.54c0,0,11.94-0.55,14.22-1.19c2.27-0.64,1.14-2.26,4.26-1.61c3.13,0.64,5.12-0.62,7.82-0.15
			c2.7,0.47,9.72,0.01,6.68-1.14c-3.04-1.15-8.78,2.74-2.26,2.9c6.52,0.16,9.36-0.47,9.93-0.96c0.57-0.49,4,0.96,4,0.96
			s3.68-1.28,5.38-0.96c1.71,0.32,8.81,1.12,8.81,1.12"/>
		<path class="st0" d="M353.09,246.78c0,0,12.02-0.55,14.31-1.19c2.29-0.64,1.14-2.26,4.29-1.61c3.15,0.64,5.15-0.62,7.87-0.15
			c2.72,0.47,9.79,0.01,6.72-1.14c-3.06-1.15-8.83,2.74-2.27,2.9c6.56,0.16,9.42-0.47,9.99-0.96s4.02,0.96,4.02,0.96
			s3.7-1.28,5.42-0.96c1.72,0.32,8.87,1.12,8.87,1.12"/>
	</g>
</g>
<g id="Graphics_2">
	<g>
		<path class="st0" d="M258.15,119.77c4.34-15.99-5.11-32.47-21.1-36.81c-15.99-4.34-32.47,5.11-36.81,21.1
			c-2.94,10.85,0.47,21.91,7.96,29.27l-0.06,3.96l26.4,7.16l1.95-3.45C246.67,138.44,255.21,130.62,258.15,119.77z"/>
		<path class="st0" d="M222.89,167.03l-16.1-4.37c-2.13-0.58-3.47-2.67-3.1-4.84l3.51-20.78l28.29,7.67l-7.47,19.7
			C227.23,166.47,225.02,167.6,222.89,167.03z"/>
		<path class="st0" d="M223.09,167.48c-0.76,2.82-5.13,4.09-9.74,2.84c-4.61-1.25-7.73-4.55-6.97-7.37"/>
		<polyline class="st0" points="213.16,115.06 219.88,116.88 226.45,109.2 226.73,127.46 235.93,113.74 236.69,121.07 
			241.54,122.38 		"/>
		<line class="st0" x1="242.45" y1="71.68" x2="251.68" y2="53.62"/>
		<line class="st0" x1="268.98" y1="90.49" x2="283.71" y2="85.43"/>
		<line class="st0" x1="268.45" y1="124.66" x2="282.14" y2="126.73"/>
		<line class="st0" x1="208.48" y1="77.2" x2="201.05" y2="55.69"/>
		<line class="st0" x1="188.76" y1="112.6" x2="178.55" y2="111.06"/>
	</g>
	<g>
		<path class="st0" d="M110.35,156.58c3.93-0.76,6.38-4.43,10.65-3.81l0.61,0.61c-0.61,0.61-1.22,1.22-1.83,1.83
			c2.44,1.83,4.89,0,7.33,0c0.61,0,0.61,1.22,1.22,1.22c5.5,0.61,11-0.61,16.5-1.22c1.83,1.83,5.5,2.44,7.96,1.42"/>
		<path class="st0" d="M110.14,175.67c4.13-0.29,7.19-2.74,10.85-4.57c-1.83,1.22-3.67,0-4.89,2.44c3.67,2.44,8.55,0,12.22-1.22
			c3.06-1.22,6.11-0.61,9.08-0.47c-1.14,0.51-2.67-0.21,0,0c-1.14,0.51-3.25,1.09-0.71,1.43c2.51,0.33,5.47-0.74,7.87,0.05"/>
		<path class="st0" d="M109.07,149.52c3.98-0.77,12.79-5.12,10.24-4.64c-2.56,0.48-7.39,3.38-1.14,3.55
			c6.25,0.16,7.68-2.09,9.38-2.74c1.71-0.64,7.68,0,8.53,0c0.85,0-4.83,1.22,0,1.5c4.83,0.28,5.3-0.6,7.2,0c1.9,0.6,5.03,0,5.03,0
			s0.89,0.92,5.42,1.08c4.53,0.16,19.4,0.86,19.4,0.86"/>
		<path class="st0" d="M109.07,141.34c0,0,11.94-0.55,14.22-1.19c2.27-0.64,1.14-2.26,4.26-1.61c3.13,0.64,5.12-0.62,7.82-0.15
			c2.7,0.47,9.72,0.01,6.68-1.14c-3.04-1.15-8.78,2.74-2.26,2.9c6.52,0.16,9.36-0.47,9.93-0.96c0.57-0.49,4,0.96,4,0.96
			s3.68-1.28,5.38-0.96c1.71,0.32,8.81,1.12,8.81,1.12"/>
		<path class="st0" d="M107,165.58c0,0,12.02-0.55,14.31-1.19c2.29-0.64,1.14-2.26,4.29-1.61c3.15,0.64,5.15-0.62,7.87-0.15
			c2.72,0.47,9.79,0.01,6.72-1.14c-3.06-1.15-8.83,2.74-2.27,2.9c6.56,0.16,9.42-0.47,10-0.96c0.57-0.49,4.02,0.96,4.02,0.96
			s3.7-1.28,5.42-0.96c1.72,0.32,8.87,1.12,8.87,1.12"/>
	</g>
</g>
<g id="Character">
	<g>
		<path class="st1" d="M237.47,192.9c0,0,4.08-32.54,26.74-25.3c22.66,7.25,28.37,32.89,24.83,56.04
			c-3.54,23.15,0.47,27.39,0.47,27.39s-6.53-7.52-4.23-24.03c0,0-3.48,18.51-0.32,25.9c0,0-1.65,3.7-6.53,2.55
			c0,0-8.24-19.5-8.18-37.62C270.31,199.72,237.47,192.9,237.47,192.9z"/>
		<g class="st2">
			<path class="st3" d="M246.93,184.33c0,0,3.34-15.24,16.81-14.25"/>
			<path class="st3" d="M256.7,189.93c0,0,4.17-10.07,11.94-9.52c7.78,0.55,15.82,15.18,15.16,27.35s-6.51,29.72-1.21,43.2"/>
			<path class="st3" d="M262.46,196.03c0,0,9.51-2.76,12.03,6.12c2.52,8.87,0,28.89,0,28.89"/>
		</g>
		<path class="st4" d="M235.27,190.25c0,0,0.8-4.35,7.72-2.97c6.92,1.38,20.3,7.91,13.71,13.65
			C250.11,206.67,235.27,190.25,235.27,190.25z"/>
		<g>
			<g>
				<defs>
					<path id="XMLID_748_" d="M144.7,365.87c16.15,8.65,33.09-0.27,33.09-0.27c13.3,8.92,20.13,7.32,20.13,7.32l33.43,55.36
						l146.09-2.87c0,0,1.53-38.63,0-51.39c-7.95-66.08-40.68-79.52-75.01-87.98c-34.34-8.46-69.7-7.1-97.9,0.41
						c-38.4,10.23-59.82,30.86-59.82,30.86s-19.89,4-24.29,15.49C120.4,332.8,135.65,361.03,144.7,365.87z"/>
				</defs>
				<use xlink:href="#XMLID_748_"  style="overflow:visible;fill:#92E3A9;"/>
				<clipPath id="XMLID_2_">
					<use xlink:href="#XMLID_748_"  style="overflow:visible;"/>
				</clipPath>
				<path class="st5" d="M351.58,396.99L203.39,382l-5.48-9.08c0,0-6.83,1.6-20.13-7.32c0,0-11.38,6-24.38,3.39
					c19.32-20.49,3.57-39.95,3.57-39.95c7.15,2.31,9.15,8.77,9.15,8.77s-0.08-10.28,2.68-8.77c2.76,1.52,11.49,17.63,11.49,17.63
					c-4.36-38.7,10.79-43.18,10.79-43.18c-9.38,27.74,13.34,67.16,48.15,75.73c34.81,8.58,79.52,4.26,79.52,4.26
					c-3.96-4.96-2.88-14.56-2.88-14.56c3.39,3.97,16.33,10.3,16.33,10.3c-5.15-12.78,5.14-22.69,5.14-22.69L351.58,396.99z"/>
				<path class="st5" d="M305.93,317.3c-24.28,26.96-58.44,9.04-58.44,9.04c-24.58,8.7-33.48-16.1-33.71-18.37
					c-1.16-11.65,4.27-19.96,12.64-25.88c23.56-3.23,50.07-2.44,76,3.95c2.45,0.6,4.89,1.23,7.31,1.91
					C314.57,296.27,315.69,306.47,305.93,317.3z"/>
				
					<use xlink:href="#XMLID_748_"  style="overflow:visible;fill:none;stroke:#263238;stroke-linecap:round;stroke-linejoin:round;stroke-miterlimit:10;"/>
			</g>
			<path class="st4" d="M236.57,329.38c0,0-13.47-3.74-6.06-25.63c7.42-21.89,14.72-36.72,36.53-36.43
				c21.8,0.29,37.42,18.94,38.78,26.24c1.36,7.3-8.34,32.64-28.44,40.51"/>
			<path class="st0" d="M191.08,353.58c0,0-7.93-25.9-1.93-39.14"/>
			<g class="st6">
				<path class="st0" d="M248.33,355.32c0.08,7.57,1.3,15.12,3.16,22.45"/>
				<path class="st0" d="M249.26,344.8c-0.43,1.78-0.64,3.62-0.77,5.45"/>
				<path class="st0" d="M269.18,378.21c0.36,1.1,0.76,2.19,1.2,3.26"/>
				<path class="st0" d="M262.46,346.67C265,356,265,366,268.07,374.54"/>
				<path class="st0" d="M278.53,344.8c0,0,12.4,26.73,14.51,39.08"/>
				<path class="st0" d="M299.01,347.94c5.51,12.13,10.57,24.71,13.48,37.74"/>
				<path class="st0" d="M294.35,338.21c1.01,1.99,1.98,4,2.94,6.01"/>
				<path class="st0" d="M237.47,340.32c0,0-5.6,16.81-4.89,36.84"/>
				<path class="st0" d="M218.39,343.13c-3.32,9.52-4.39,19.75-3.93,29.79"/>
				<path class="st0" d="M224.77,330.56c-1.92,2.46-3.39,5.31-4.64,8.15"/>
				<path class="st0" d="M211.27,317.37c0,0-13.36,15.3-14.99,33.23"/>
				<path class="st0" d="M319.3,345.21c0.92,1.75,1.75,3.55,2.48,5.4"/>
				<path class="st0" d="M299.41,321.26c6.96,5.62,13.1,12.66,17.79,20.26"/>
				<path class="st0" d="M308.59,307.49c0,0,15.03,2.5,21.63,11.2"/>
				<path class="st0" d="M308.59,293.56c0,0,10.9-1.24,19.9,3.11"/>
				<path class="st0" d="M203.28,304.57c1.74-0.49,3.55-0.81,5.36-0.82"/>
				<path class="st0" d="M193.41,309.2c1.87-1.25,3.88-2.32,5.94-3.22"/>
				<path class="st0" d="M189.72,303.49c-6.4-0.62-28.87,16.14-28.87,16.14s-6.01-0.99-10.76,4.05"/>
				<path class="st0" d="M183.58,332.35l-7.38,4.27c0,0-4,6.71-10.08,6.5"/>
				<path class="st0" d="M186.96,356.53c0,0-3.38,2.06-6.01,1.49c0,0-11.54,8.14-18.03,5.24"/>
			</g>
			<g class="st6">
				<path class="st0" d="M249.26,325.55c0,0-2.91,3.69,2.23,8.44"/>
				<path class="st0" d="M266.6,330.72c0.34,1.06,0.5,2.16,0.43,3.27"/>
				<path class="st0" d="M262.31,323.68c1.03,1.12,1.95,2.35,2.73,3.65"/>
				<path class="st0" d="M274.49,315.79c0,0,5.84,1.32,8.1,9.76"/>
				<path class="st0" d="M294.03,309.42c0.83,1.58,1.42,3.28,1.79,5.03"/>
				<path class="st0" d="M283.8,301.97c2.79,0.36,5.46,1.79,7.47,3.74"/>
				<path class="st0" d="M285.78,286.04c0,0,8.84-5.06,15.96,6.02"/>
				<path class="st0" d="M278.54,275.4c1.29-1.68,3.68-2.22,5.68-2.32"/>
				<path class="st0" d="M237.47,325.55c0,0-1.38-4.39,2.02-6.86"/>
			</g>
		</g>
		<g>
			<polygon class="st7" points="474.93,411.23 474.93,483.99 25.07,483.99 25.32,356.53 83.48,363.61 195.61,377.25 368.4,398.27 
				457.13,409.06 			"/>
			<line class="st0" x1="25.32" y1="356.53" x2="474.93" y2="411.23"/>
		</g>
		<g>
			<polygon class="st8" points="213.19,432.87 66.15,413.72 119.04,390.55 266.09,409.71 			"/>
			<g>
				<defs>
					<path id="XMLID_752_" d="M185.87,399.26l-41.17,21.23l-70.21-8.78l-3.05-3.17l2.93-1.36h0.01l41.35-19.16
						c0,0,16.55-6.11,36.15-1.79c13.12,2.9,23.91,7.76,29.6,10.65C184.3,398.31,185.87,399.26,185.87,399.26z"/>
				</defs>
				<use xlink:href="#XMLID_752_"  style="overflow:visible;fill:#FFFFFF;"/>
				<clipPath id="XMLID_3_">
					<use xlink:href="#XMLID_752_"  style="overflow:visible;"/>
				</clipPath>
				<path class="st9" d="M185.87,399.26l-41.17,21.23l-70.21-8.78l-3.05-3.17l2.93-1.36h0.01c6.07-1.13,14.87-2.04,24.31-0.84
					c16.58,2.09,35.67,8.53,35.67,8.53s4.98,3.58,7.35-0.74c2.38-4.32,13.55-4.32,19.14-6.1c5.38-1.71,14-9.85,20.63-11.15
					C184.3,398.31,185.87,399.26,185.87,399.26z"/>
				
					<use xlink:href="#XMLID_752_"  style="overflow:visible;fill:none;stroke:#263238;stroke-linecap:round;stroke-linejoin:round;stroke-miterlimit:10;"/>
			</g>
			<g>
				<defs>
					<path id="XMLID_753_" d="M262.31,404.73l-2.92,4.11l-45.31,20.67l-69.38-9.02l4.22-2.18l36.95-19.05c0,0,12.34-4.44,29.44-4.37
						c15.12,0.06,43.44,8.73,46.69,9.74C262.2,404.7,262.31,404.73,262.31,404.73z"/>
				</defs>
				<use xlink:href="#XMLID_753_"  style="overflow:visible;fill:#FFFFFF;"/>
				<clipPath id="XMLID_4_">
					<use xlink:href="#XMLID_753_"  style="overflow:visible;"/>
				</clipPath>
				<path class="st10" d="M262.31,404.73l-2.92,4.11l-45.31,20.67l-69.38-9.02l4.22-2.18c8.97-2.14,21.38-4.12,31.36-2.41
					c17.51,3,32.95,8.27,32.95,8.27s37.02-15.74,48.77-19.54C262.2,404.7,262.31,404.73,262.31,404.73z"/>
				
					<use xlink:href="#XMLID_753_"  style="overflow:visible;fill:none;stroke:#263238;stroke-linecap:round;stroke-linejoin:round;stroke-miterlimit:10;"/>
			</g>
			<path class="st0" d="M144.7,420.49c0,0,10.49-4.22,29.58-4.73c19.09-0.51,38.95,8.4,38.95,8.4l45.82-18.58"/>
			<path class="st0" d="M156.97,419.07c0,0,27.37-0.38,56.39,8.02l19.22-8.09"/>
			<path class="st0" d="M71.44,408.54c0,0,10.95-4.74,37.17-1.18c26.22,3.56,34.88,11.64,34.88,11.64"/>
			<path class="st0" d="M73.37,410.55c0,0,11.56-2.92,32.94,0c21.38,2.92,34.62,8.45,34.62,8.45"/>
			<g class="st6">
				<path class="st0" d="M149.73,412.93c0,0-4.41-0.09-3.84-1.7s-4.32-1.41-5.83-2.8c-1.51-1.38-3.69-1.62-4.88-2.39
					c-1.19-0.77,1.78-0.89-2.37-2.22c-4.15-1.33-5.21,0.88-9.36-0.6c-4.15-1.48,2.29-1.58-3.69-2.01c-5.98-0.43-2.89,0.3-8.47,0
					c-5.58-0.3-5.18,1.29-6.76,0c-1.58-1.29-15.8,1.37-15.8,1.37"/>
				<path class="st0" d="M158.01,408.86c-1.11-0.5-2.23-1-3.34-1.5c-0.44-0.2-0.93-0.46-1.02-0.94c-0.05-0.29,0.07-0.62-0.08-0.87
					c-0.15-0.26-0.51-0.3-0.81-0.32c-1-0.05-2.01-0.09-3.01-0.14c-0.46-1.06-1.62-1.65-2.74-1.93c-1.13-0.27-2.31-0.31-3.4-0.69
					c-0.75-0.26-1.44-0.68-2.13-1.06c-4.93-2.74-10.57-4.14-16.21-4.2c0.47-0.35,0.93-0.69,1.4-1.04
					c-3.85-0.48-7.81-0.05-11.46,1.24c0.37-0.33,0.58-0.83,0.57-1.32c-4.29,0.39-8.59,0.78-12.88,1.16"/>
				<path class="st0" d="M166.44,405.45c-1.09,0.11-2.13-0.95-2.01-2.04c0.03-0.25,0.1-0.52-0.02-0.73
					c-0.2-0.35-0.72-0.26-1.11-0.36c-1.04-0.26-1.09-1.76-1.87-2.49c-0.44-0.4-1.06-0.52-1.64-0.63c-2.69-0.47-5.39-0.95-8.08-1.42
					c-0.53-0.09-1.09-0.2-1.48-0.57c-0.33-0.31-0.49-0.77-0.81-1.1c-0.53-0.54-1.36-0.6-2.11-0.63c-2.6-0.1-5.19-0.19-7.79-0.29
					c-0.57-0.02-1.17-0.05-1.66-0.33c-0.5-0.28-0.85-0.9-0.64-1.43c-3.1-1.34-6.56-1.46-9.94-1.51c-4.17-0.07-8.35-0.06-12.52,0.01"
					/>
				<path class="st0" d="M166.01,412.22c3.12-1.14,6.4-1.83,9.71-2.04c0.33-0.02,0.68-0.04,0.98,0.11c0.3,0.14,0.51,0.41,0.79,0.59
					c0.44,0.28,0.98,0.29,1.5,0.3c2.86,0.03,5.71,0.07,8.57,0.1c0.06,0.26,0.12,0.52,0.18,0.78c3.05,0,6.11,0,9.16,0
					c0.06,0.27,0.13,0.54,0.19,0.81c2.65-0.03,5.3-0.06,7.95-0.09c0.22,0,0.46,0,0.64,0.13c0.21,0.15,0.28,0.42,0.4,0.65
					c0.47,0.87,1.64,0.99,2.62,1.09c2.52,0.25,4.98,1.09,7.12,2.43"/>
				<path class="st0" d="M177.83,406.45c1.72-0.43,3.44-0.87,5.16-1.3c0.21-0.05,0.44-0.1,0.64-0.01c0.25,0.12,0.34,0.42,0.54,0.61
					c0.29,0.29,0.74,0.31,1.14,0.29c1.51-0.06,3.01-0.38,4.41-0.94c0.61-0.25,1.21-0.54,1.86-0.66c1.13-0.21,2.28,0.14,3.4,0.43
					c2.11,0.54,4.29,0.87,6.47,0.95c1.42,0.05,2.85,0,4.26,0.15c1.53,0.16,3.02,0.55,4.5,0.94c1.98,0.52,3.96,1.04,5.93,1.56
					c3.64,0.96,7.37,1.95,10.45,4.12"/>
				<path class="st0" d="M185.43,401.93c1.64-0.09,3.29-0.19,4.93-0.28c1.67-1.07,3.61-1.71,5.59-1.85
					c1.27-0.08,2.54,0.04,3.81,0.16c1.63,0.16,3.25,0.31,4.88,0.47c2.57,0.25,5.16,0.49,7.72,0.25c-0.03,0.67,0.89,0.87,1.56,0.85
					c1.36-0.05,2.72-0.11,4.09-0.16c-0.04,0.58,0.24,1.16,0.7,1.51c0.33,0.25,0.73,0.38,1.13,0.5c3.06,0.9,6.29,1.24,9.48,1
					c0.42-0.03,0.87-0.07,1.25,0.12c0.29,0.15,0.5,0.42,0.77,0.62c0.49,0.38,1.13,0.49,1.74,0.63c2.05,0.48,4,1.42,5.64,2.73
					c-0.07-0.44-0.13-0.88-0.2-1.32"/>
				<path class="st0" d="M248.13,404.56c-1.53,0.89-3.17-0.85-4.73-1.68c-1.52-0.8-3.33-0.72-5.04-0.87
					c-3.91-0.34-7.6-1.95-11.43-2.8c-2.96-0.66-6-0.87-9.03-1.08c-3.17-0.22-6.35-0.44-9.52-0.66"/>
			</g>
		</g>
		<g>
			<g>
				<defs>
					<path id="XMLID_751_" d="M162.91,355.15c-5.09,17.68-28.72,25.9-28.72,25.9s-31.92,12.13-34.02-17.73
						c0,0,1.59-14.59,11.12-20.02c0,0,6.91-13.74,17.36-19.62"/>
				</defs>
				<use xlink:href="#XMLID_751_"  style="overflow:visible;fill:#92E3A9;"/>
				<clipPath id="XMLID_5_">
					<use xlink:href="#XMLID_751_"  style="overflow:visible;"/>
				</clipPath>
				<path class="st11" d="M156.37,366.54c-8.79,9.85-22.18,14.51-22.18,14.51s-31.44,11.95-33.96-17.06
					c1.92-3.61,3.18-5.97,3.18-5.97s1.89-12.41,12.02-12.81c10.13-0.41,18.57,2.9,20.42,15.4c1.5,10.15-1.54,13.57-2.72,14.5
					c2.01-1.4,9.88-8.1,4.56-24.27c0,0,4.52-1.67,7.01,2.74c2.45,4.33-1.09,20.01-1.21,20.55
					C143.83,373.97,150.48,370.71,156.37,366.54z"/>
				
					<use xlink:href="#XMLID_751_"  style="overflow:visible;fill:none;stroke:#263238;stroke-linecap:round;stroke-linejoin:round;stroke-miterlimit:10;"/>
			</g>
			<path class="st0" d="M146.96,329.04c0,0,18.28,6.27,12.9,27.2"/>
			<g>
				<path class="st12" d="M134.15,364.94c-0.77,9.07-8.36,11.15-8.36,11.15l-4.64,3.14l-11.49,6.32l1.64,3.88
					c8.66,0,9.55,2.54,8.66,5.22c-0.9,2.69-12.84,4.03-14.93,4.48c-2.09,0.45-11.94-2.84-14.63-3.88c-2.69-1.04-3.53-6.38-3.53-6.38
					l-1.85-21.83c0,0,1-4.35,5.28-7.1c0,0,2.34-4.54,4.87-5.59c2.54-1.04,10.22,0.81,10.22,0.81s6.61-10.16,16.52-8.24
					C131.59,348.79,134.61,359.51,134.15,364.94z"/>
				<path class="st0" d="M105.39,355.15c0,0,5.01,1.13,7.7,2.18"/>
			</g>
			<g>
				<polygon class="st13" points="116.84,393.12 122.29,398.72 120.36,391.15 81.27,321.26 77.75,323.23 				"/>
				<path class="st14" d="M80.2,329.15l-5.09-9.09c0,0,0.28-1.02,2.04-2.01c1.76-0.98,2.81-0.71,2.81-0.71l9.81,17.54
					c0,0-1.25-0.17-2.81,0.71c-1.43,0.8-1.74,1.84-1.74,1.84l7.51,13.42l-1.3-0.14l-11.37-20.32L80.2,329.15z"/>
			</g>
			<g>
				<path class="st7" d="M94.72,366.28c0,0,6.87,4.03,8.96,7.17c0,0,10.15,5.77,10.15,10.15c0,3.81-2.54,3.98-2.54,3.98
					s3.43,2.07,4.03,4.72c0.6,2.65-1.49,4.91-2.09,4.68c-0.6-0.24-20.75-5.46-25.53-7.7c-4.78-2.24-8.06-5.08-3.73-18.06
					c0,0,0.3-2.54,1.04-4.18c0.75-1.64,4.63-5.57,4.63-5.57"/>
				<path class="st0" d="M94.72,366.28c0,0,6.87,4.03,8.96,7.17c0,0,10.15,5.77,10.15,10.15c0,3.81-2.54,3.98-2.54,3.98
					s3.43,2.07,4.03,4.72c0.6,2.65-1.49,4.91-2.09,4.68c-0.6-0.24-20.75-5.46-25.53-7.7c-4.78-2.24-8.06-5.08-3.73-18.06
					c0,0,0.3-2.54,1.04-4.18c0.75-1.64,4.63-5.57,4.63-5.57"/>
				<path class="st0" d="M86.06,374.52c0.75,2.37,9.43,4.46,12.63,6.84c3.2,2.39,12.6,6.22,12.6,6.22"/>
			</g>
			<g>
				<path class="st7" d="M122.94,361.46c0,0,4.18,1.59,5.77,4.78c1.59,3.18,1.79,8.96,0,10.55c-1.79,1.59-9.95,9.16-11.15,10.55
					c-1.19,1.39-7.76-3.18,0-12.94c0,0-0.2-5.37,1.19-7.17"/>
				<path class="st0" d="M122.94,361.46c0,0,4.18,1.59,5.77,4.78c1.59,3.18,1.79,8.96,0,10.55c-1.79,1.59-9.95,9.16-11.15,10.55
					c-1.19,1.39-7.76-3.18,0-12.94c0,0-0.2-5.37,1.19-7.17"/>
			</g>
			<path class="st0" d="M129.98,344.22c0,0,8.51,1.97,9.82,13.8c1.32,11.83-2.38,19.06-11.15,23.02"/>
			<g class="st6">
				<path class="st0" d="M132.51,332.85c2.16-2.49,4.99-5.13,8.42-5.52"/>
				<path class="st0" d="M126.68,341.52c0.88-1.71,1.89-3.36,2.98-4.95"/>
				<path class="st0" d="M140.93,351.96c0,0,12.85-1.75,17.59-7.16"/>
				<path class="st0" d="M151.39,367.31c2.33-1.13,4.53-2.63,6.15-4.67"/>
				<path class="st0" d="M140.93,370.4c2.11-0.28,4.2-0.78,6.23-1.42"/>
			</g>
		</g>
		<g>
			<g>
				<defs>
					<path id="XMLID_749_" d="M334.89,300.69c21.04,1.19,63.13,43.91,72.64,54.46c9.5,10.55,25.03,26.32,30.04,38.8
						c7.64,19.05-11.54,36.56-30.55,35.56c-19.01-1.01-58.55-41.93-58.55-41.93s-30.17-28.11-21.87-53.51"/>
				</defs>
				<use xlink:href="#XMLID_749_"  style="overflow:visible;fill:#92E3A9;"/>
				<clipPath id="XMLID_6_">
					<use xlink:href="#XMLID_749_"  style="overflow:visible;"/>
				</clipPath>
				<path class="st15" d="M389.57,371.22c0,0-31.44,10.76-45.49,11.79c-1.53-1.7-3.33-3.82-5.2-6.28
					c-2.39-5.77-6.59-17.68-1.01-18.71c7.38-1.35,5.84,11.49,10.02,17.64c0,0,7.12-16.96,16.62-16.92
					c9.49,0.04,5.53,11.66,5.53,11.66S386.41,365.46,389.57,371.22z"/>
				<path class="st15" d="M407.01,429.51c-3.3-0.17-7.22-1.55-11.44-3.71c15.47-2.1,30.26-5.67,34.61-13.28
					c4.42-7.73,1.97-22.98-2.2-34.05c4.13,5.33,7.64,10.65,9.58,15.48C445.2,413,426.02,430.52,407.01,429.51z"/>
				
					<use xlink:href="#XMLID_749_"  style="overflow:visible;fill:none;stroke:#263238;stroke-linecap:round;stroke-linejoin:round;stroke-miterlimit:10;"/>
			</g>
			<path class="st0" d="M312.48,364.95c0,0,9.73,14.59,32.02,18.53"/>
			<g>
				<path class="st12" d="M314.8,393.1l-17.31,0.23c0,0-23.52-7.58-26.6-9.58c-3.08-2-23.03,7.94-25.45,8.99
					c-2.42,1.05-4.43,2.85-4.43,2.85s-2.05,1.97-3.82,2.76c-1.77,0.79-4.65,5.47-4.65,5.47s-7.6,1.8-4.77,3.99
					c2.83,2.19,12.15,0.92,15.7-0.21c3.55-1.13,10.18-0.13,10.18-0.13s9.84,14.57,35.75,9.14l25.76,2.33"/>
				<path class="st0" d="M232.53,403.82c0,0,6.57-2.5,9.75-3.9c3.18-1.4,12.16-2.37,12.16-2.37s-1.04-4.4,3.17-5.98
					c4.2-1.58,4.84-4.65,4.84-4.65"/>
				<path class="st0" d="M241.01,395.6c0,0,8.45-2.9,10.48-2.93"/>
			</g>
			<path class="st16" d="M338.65,382.6c-0.01,0-0.02-0.01-0.03-0.01c0.73,0.04,1.41,0.16,2.02,0.36c0.14,0.05,0.28,0.09,0.43,0.12
				C340.07,383.01,339.26,382.86,338.65,382.6z"/>
			<path class="st16" d="M389.57,371.22c0,0-22.39,7.66-37.82,10.68c10.13-2.6,24.51-8.11,37.82-10.69V371.22z"/>
			<g>
				<defs>
					<path id="XMLID_750_" d="M394.45,370.4c-20.84,2.82-46.14,15.1-53.81,12.54c-7.67-2.56-25.85,8.7-25.85,8.7l-10.69,0.14
						c0,0-7.91,17.53-3.16,30.23l11.1,1.09c0,0-0.81,7.03,28.24,8.9c29.05,1.87,82.94,4.08,93.44-14.83"/>
				</defs>
				<use xlink:href="#XMLID_750_"  style="overflow:visible;fill:#92E3A9;"/>
				<clipPath id="XMLID_7_">
					<use xlink:href="#XMLID_750_"  style="overflow:visible;"/>
				</clipPath>
				<path class="st17" d="M433.71,417.17c-10.5,18.92-64.39,16.71-93.44,14.84c-29.05-1.87-28.23-8.9-28.23-8.9l-8.27-0.81
					c-0.23-6.58,0.5-18.93,8.71-23.13c0,0-1.38,18.48,0,21.09c1.39,2.61,39.38,9.99,59.94,8.01c20.41-1.95,50.69-4.18,57.6-15.49
					L433.71,417.17z"/>
				
					<use xlink:href="#XMLID_750_"  style="overflow:visible;fill:none;stroke:#263238;stroke-linecap:round;stroke-linejoin:round;stroke-miterlimit:10;"/>
			</g>
			<path class="st0" d="M353.86,381.46c0.58-0.3,5.88-13.48,11.44-14.65"/>
			<path class="st0" d="M312.04,423.11c-0.01-1.3-3.62-18.22,0.44-23.94"/>
			<path class="st0" d="M333.12,327.33c0,0,5.08-13.98,18.63-15.39"/>
			<g class="st6">
				<path class="st0" d="M357.55,347.32C358,349,357,351,360,352c7,1,10,6,14,11c2,1,4,2,5.54,3.81"/>
				<path class="st0" d="M341.07,325.55c5.62,5.16,10.52,11.35,14.39,17.91"/>
				<path class="st0" d="M328.71,396.75c-2.33,0.76-4.64,1.55-6.93,2.42"/>
				<path class="st0" d="M404.09,379.39C383,390,360,389,337,394c-1,0-3,1-4.35,1.52"/>
				<path class="st0" d="M353.86,315.79C363,320,370,328,377,335c7,9,13,19,24,24c3,2,6,5,6,10c1,2,5,4,1.2,7.99"/>
				<path class="st0" d="M380.88,405.93C361,409,341,415,320.54,412.2"/>
				<path class="st0" d="M426.22,381.9c3.12,15.09-16.6,18.03-27.09,20.33c-4.88,1.07-9.78,2.07-14.69,3.02"/>
				<path class="st0" d="M330.47,426.18c-3.8-0.62-7.63-1.5-11.17-3.07"/>
				<path class="st0" d="M436.24,402.59C436,412,427,417,420,419c-28,10-57,9-85.76,7.71"/>
				<path class="st0" d="M339.02,355.11c3.61,3.77,8.31,5.66,10.05,10.94c1.06,3.23,2.07,7.18,5.94,8.08"/>
				<path class="st0" d="M330.22,340.32c1.51,4.11,3.59,8.11,6.18,11.64"/>
			</g>
		</g>
		<path class="st0" d="M411.6,364.95"/>
		<g>
			<path class="st12" d="M249.26,321.26c-0.12-0.16-0.26-0.32-0.4-0.48c-4.19-4.91-14.36-8.46-17.45-9.45
				c-0.57-0.18-0.9-0.28-0.9-0.28s7.07-52.61,40.68-35.65C304.79,292.35,253.88,327.34,249.26,321.26z"/>
			<path class="st1" d="M248.86,320.78c-4.19-4.91-14.36-8.46-17.45-9.45c0.59-1.59,1.12-2.66,1.12-2.66l29.92-18.03
				C262.45,290.64,263.27,311.48,248.86,320.78z"/>
		</g>
		<g>
			<path class="st12" d="M274.49,258.04c-0.8-45.22-31.48-77.5-71.8-54.26c-32.95,18.99-29.41,55.12-11.26,73.65
				c10.74,10.97,2.15,21.4,18.97,35.61c5.72,4.83,20.23,10.2,25.28,8.56c17.78-5.76,32.35-25.43,29.74-33.5"/>
			<path class="st0" d="M207.63,264.71c0,0,6.75-8.65,20.01-6.48"/>
			<path class="st0" d="M193.41,269.31c0,0-6.76-2.38-7.39,0.27"/>
			
				<ellipse transform="matrix(0.8109 -0.5852 0.5852 0.8109 -116.2774 181.3891)" class="st1" cx="222.52" cy="270.61" rx="1.69" ry="2.82"/>
			<path class="st1" d="M199.67,277.46c0.91,1.26,1.04,2.73,0.28,3.28c-0.76,0.55-2.11-0.03-3.02-1.3
				c-0.91-1.26-1.04-2.73-0.28-3.28C197.4,275.61,198.76,276.2,199.67,277.46z"/>
			<path class="st12" d="M200.31,275.4c3.17,2.67,7.08,6.64,3.54,14.26c-3.54,7.62,5.19,8.49,9.93,5.26"/>
			<path class="st12" d="M216.98,293.56c0,0,3.08-2.85-1.9-5.86"/>
			<path class="st12" d="M214.46,303.18c0.91,1.51,5.55-0.43,6.91-0.73c0,0,2.31-1.56,3.64-2.19s5.31-2.68,5.49-5.01"/>
			<path class="st12" d="M217.64,305.92c4.18,4.07,11.44-0.38,12.87-6.43"/>
			<path class="st1" d="M219.63,191.45c-28.98,5.38-44.78,24.86-45.11,42.33c0,0-10.99,20.59-2.48,35.53c0,0,0.42-0.52,1.12-1.22
				c-0.37-2.5-0.61-5.01-0.61-7.53c0.01-2.53,0.22-5.06,0.74-7.53c0.57-2.46,1.47-4.83,2.76-6.97c-1.11,2.24-1.8,4.64-2.17,7.08
				c-0.31,2.45-0.32,4.92-0.13,7.37c0.17,2.08,0.51,4.14,0.95,6.17c1.59-1.32,3.69-2.6,5.65-2.39c0.89,0.09,1.8,0.11,2.7,0.05
				c-0.41-2.05-0.75-4.11-0.98-6.18c-0.24-2.4-0.34-4.81-0.27-7.21c0.12-2.4,0.44-4.78,1.05-7.08c-0.31,2.36-0.32,4.72-0.15,7.06
				c0.23,2.34,0.62,4.65,1.15,6.93c0.5,2.06,1.11,4.09,1.79,6.09c2.16-0.52,4.31-1.51,6.38-3.09c0.61-0.47,1.17-0.78,1.7-0.99
				c-0.16-1-0.3-2.01-0.4-3.02c-0.28-2.84-0.48-5.68-0.29-8.52c0.18-2.83,0.64-5.65,1.61-8.27c-0.48,2.75-0.41,5.52-0.1,8.22
				c0.31,2.71,0.99,5.37,1.74,7.98c0.34,1.15,0.72,2.29,1.12,3.42c1.18,0.23,2.34,0.54,3.67,0.25c2.19-0.47,4.42-0.31,6.5-1.16
				c-0.25-0.71-0.51-1.42-0.74-2.14c-0.77-2.49-1.35-5.04-1.75-7.6c-0.36-2.58-0.46-5.18-0.27-7.75c0.02,2.58,0.31,5.14,0.87,7.64
				c0.59,2.49,1.35,4.94,2.3,7.31c0.26,0.64,0.55,1.26,0.83,1.89c0.46-0.3,0.91-0.67,1.35-1.13c2.74-2.89,6.77-4.87,9.17-3.64
				c0.45,0.23,0.99,0.47,1.56,0.67c-0.09-0.28-0.18-0.56-0.27-0.84c-0.75-2.65-1.37-5.34-1.84-8.05c-0.42-2.72-0.65-5.46-0.6-8.19
				c0.25,2.72,0.78,5.38,1.48,8c0.75,2.6,1.64,5.15,2.66,7.65c0.28,0.68,0.59,1.34,0.89,2.01c1.91,0.24,3.74-0.18,4.3-2.27
				c0.17-0.62,0.46-1.03,0.82-1.3c-0.15-0.38-0.29-0.76-0.44-1.14c-0.72-1.97-1.33-3.97-1.84-5.98c-0.52-2.01-0.91-4.06-1.17-6.11
				c-0.3-2.04-0.38-4.11-0.41-6.16c0.33,2.02,0.71,4.03,1.3,5.97c0.55,1.95,1.22,3.86,2,5.72c0.77,1.86,1.63,3.68,2.6,5.44
				c0.4,0.74,0.83,1.47,1.27,2.2c1.06,0.38,1.9,0.9,1.9,0.9s-5.15-12.82-4.14-25.17c0,0,6.2,26.38,25.01,35.98l3.94,7.02
				c0,0,6.71-5.5,11.99-0.53c5.28,4.97,7.16,1.59,7.16,1.59s8.32-16.25-1.66-47.08C265.83,192.85,242.76,187.16,219.63,191.45z"/>
			<path class="st12" d="M266.82,278.14c0,0-0.38,2.64,2.77,2.85c3.15,0.21,5.82-6.34,7.4-18.29c1.67-12.68-2.21-20.31-9.75-20.38
				c-7.54-0.07-9.6,7.93-10.23,12.55c-0.89,6.5,0.48,11.78,0.48,11.78"/>
			<path class="st4" d="M272.12,276.47c0,0.96-0.78,1.74-1.74,1.74c-0.96,0-1.74-0.78-1.74-1.74c0-0.96,0.78-1.74,1.74-1.74
				C271.34,274.73,272.12,275.51,272.12,276.47z"/>
			<path class="st12" d="M226.65,297c0,0-4.58,1.16-5.73,1.54c-1.15,0.38-2.42,2.16-2.42,2.16s-2.81,0.07-3.43,1.28"/>
		</g>
		<g class="st2">
			<path class="st3" d="M215.08,217.95c0,0-5.62,11.67-3.2,28.48"/>
			<path class="st3" d="M204.5,217.95c0,0-11.75,15.16-5.02,36.76"/>
			<path class="st3" d="M186.03,257.88c0.19-0.97-5.74-23.71,4.74-35.58"/>
			<path class="st3" d="M170.79,254.7c0,0,2.94-22.1,13.74-30.02"/>
			<path class="st3" d="M231.41,217.95c0,0,12.79,21.56,29.59,20.37"/>
			<path class="st3" d="M237.47,211.28c0,0,16.03,14.38,29.56,11.02"/>
		</g>
	</g>
</g>
</svg>
